<svg width="193" height="72" viewBox="0 0 193 72" fill="none" xmlns="http://www.w3.org/2000/svg">
<rect x="0.0843506" y="0.445801" width="192.735" height="71.5542" rx="6.93976" fill="#454545"/>
<path fill-rule="evenodd" clip-rule="evenodd" d="M44.3217 48.6451C45.3667 47.0836 45.7563 46.2856 46.5533 44.5333C40.6733 42.3473 39.7346 34.141 45.5438 31.0007C43.7727 28.8147 41.2755 27.5482 38.9199 27.5482C37.2197 27.5482 36.0508 27.982 35.0058 28.381C34.1203 28.7106 33.3233 29.0056 32.3315 29.0056C31.2688 29.0056 30.3302 28.6759 29.3384 28.329C28.258 27.9473 27.1245 27.5482 25.7076 27.5482C23.0687 27.5482 20.2527 29.127 18.4639 31.8335C15.949 35.6504 16.3917 42.7983 20.4475 48.9053C21.8998 51.0913 23.848 53.5376 26.3806 53.5723C27.4433 53.5897 28.134 53.2774 28.8956 52.9478C29.7634 52.5661 30.7021 52.1497 32.3492 52.1497C33.9963 52.1323 34.9173 52.5661 35.7851 52.9478C36.529 53.2774 37.202 53.5897 38.2469 53.5723C40.815 53.5376 42.8694 50.8311 44.3217 48.6451Z" fill="#FDFDFD"/>
<path fill-rule="evenodd" clip-rule="evenodd" d="M38.548 18.8735C38.8313 20.7819 38.0344 22.673 36.9894 23.9916C35.8736 25.4142 33.9254 26.5246 32.0481 26.4552C31.7116 24.6161 32.5794 22.7251 33.6421 21.4585C34.8287 20.0706 36.83 18.995 38.548 18.8735Z" fill="#FDFDFD"/>
<path d="M67.1016 23.9405C66.5349 23.9405 66.0248 23.8433 65.5714 23.649C65.118 23.4466 64.7618 23.1632 64.5027 22.7989C64.2436 22.4345 64.1141 22.0095 64.1141 21.5237H65.5957C65.6281 21.888 65.7698 22.1876 66.0208 22.4224C66.2798 22.6572 66.6401 22.7746 67.1016 22.7746C67.5793 22.7746 67.9517 22.6612 68.2189 22.4345C68.4861 22.1997 68.6197 21.9002 68.6197 21.5358C68.6197 21.2524 68.5347 21.0217 68.3647 20.8436C68.2027 20.6655 67.9963 20.5278 67.7453 20.4307C67.5024 20.3335 67.1623 20.2283 66.7251 20.1149C66.1746 19.9692 65.7252 19.8234 65.3771 19.6777C65.037 19.5239 64.7456 19.2891 64.5027 18.9733C64.2598 18.6576 64.1383 18.2365 64.1383 17.7103C64.1383 17.2245 64.2598 16.7994 64.5027 16.4351C64.7456 16.0708 65.0856 15.7914 65.5228 15.5971C65.96 15.4028 66.4661 15.3057 67.0409 15.3057C67.8586 15.3057 68.5266 15.5121 69.0448 15.925C69.571 16.3298 69.8625 16.8885 69.9192 17.601H68.3889C68.3647 17.2933 68.2189 17.0302 67.9517 16.8116C67.6846 16.593 67.3324 16.4837 66.8952 16.4837C66.4984 16.4837 66.1746 16.5849 65.9236 16.7873C65.6726 16.9897 65.5471 17.2812 65.5471 17.6617C65.5471 17.9208 65.624 18.1353 65.7779 18.3054C65.9398 18.4673 66.1422 18.5968 66.3851 18.694C66.628 18.7911 66.9599 18.8964 67.3809 19.0098C67.9396 19.1636 68.393 19.3174 68.7411 19.4712C69.0974 19.6251 69.3969 19.8639 69.6398 20.1878C69.8908 20.5035 70.0163 20.9286 70.0163 21.463C70.0163 21.8921 69.8989 22.2969 69.6641 22.6774C69.4374 23.0579 69.1014 23.3656 68.6561 23.6004C68.2189 23.8271 67.7008 23.9405 67.1016 23.9405ZM73.0344 16.5323V19.0098H75.9491V20.1392H73.0344V22.726H76.3135V23.8554H71.65V15.4028H76.3135V16.5323H73.0344ZM84.1275 17.8439C83.9089 17.4229 83.6052 17.1071 83.2166 16.8966C82.828 16.678 82.3786 16.5687 81.8686 16.5687C81.3099 16.5687 80.812 16.6942 80.3748 16.9452C79.9376 17.1962 79.5935 17.5524 79.3425 18.0139C79.0996 18.4754 78.9782 19.0098 78.9782 19.617C78.9782 20.2242 79.0996 20.7626 79.3425 21.2322C79.5935 21.6937 79.9376 22.0499 80.3748 22.3009C80.812 22.5519 81.3099 22.6774 81.8686 22.6774C82.6215 22.6774 83.2328 22.4669 83.7024 22.0459C84.172 21.6249 84.4594 21.0541 84.5647 20.3335H81.3949V19.2284H86.0463V20.3092C85.9572 20.965 85.7225 21.5682 85.3419 22.1188C84.9695 22.6693 84.4797 23.1106 83.8724 23.4425C83.2733 23.7664 82.6053 23.9283 81.8686 23.9283C81.0751 23.9283 80.3505 23.7461 79.6947 23.3818C79.0389 23.0094 78.5167 22.4952 78.128 21.8394C77.7475 21.1836 77.5572 20.4428 77.5572 19.617C77.5572 18.7911 77.7475 18.0503 78.128 17.3945C78.5167 16.7387 79.0389 16.2286 79.6947 15.8643C80.3586 15.4919 81.0832 15.3057 81.8686 15.3057C82.7673 15.3057 83.5648 15.5283 84.2611 15.9736C84.9654 16.4108 85.4755 17.0342 85.7913 17.8439H84.1275ZM88.7963 16.5323V19.0098H91.711V20.1392H88.7963V22.726H92.0753V23.8554H87.4118V15.4028H92.0753V16.5323H88.7963ZM98.1648 23.8554L96.2217 20.4792H95.1651V23.8554H93.7806V15.415H96.6953C97.343 15.415 97.8895 15.5283 98.3348 15.755C98.7882 15.9817 99.1242 16.2853 99.3428 16.6658C99.5695 17.0464 99.6829 17.4714 99.6829 17.941C99.6829 18.4916 99.5209 18.9936 99.1971 19.447C98.8813 19.8923 98.3915 20.1959 97.7276 20.3578L99.8165 23.8554H98.1648ZM95.1651 19.3741H96.6953C97.2135 19.3741 97.6021 19.2445 97.8612 18.9855C98.1284 18.7264 98.262 18.3782 98.262 17.941C98.262 17.5038 98.1324 17.1638 97.8733 16.9209C97.6142 16.6699 97.2216 16.5444 96.6953 16.5444H95.1651V19.3741ZM106.543 22.1309H103.008L102.401 23.8554H100.956L103.98 15.4028H105.583L108.607 23.8554H107.15L106.543 22.1309ZM106.154 21.0015L104.782 17.0788L103.397 21.0015H106.154ZM119.817 15.415V23.8554H118.432V20.1635H114.461V23.8554H113.077V15.415H114.461V19.034H118.432V15.415H119.817ZM126.728 22.1309H123.194L122.587 23.8554H121.142L124.166 15.4028H125.769L128.793 23.8554H127.335L126.728 22.1309ZM126.34 21.0015L124.967 17.0788L123.583 21.0015H126.34ZM132.864 15.415C133.763 15.415 134.548 15.589 135.22 15.9372C135.901 16.2772 136.423 16.7711 136.787 17.4188C137.16 18.0584 137.346 18.8073 137.346 19.6656C137.346 20.5238 137.16 21.2686 136.787 21.9002C136.423 22.5317 135.901 23.0175 135.22 23.3575C134.548 23.6895 133.763 23.8554 132.864 23.8554H130.108V15.415H132.864ZM132.864 22.726C133.852 22.726 134.609 22.4588 135.135 21.9245C135.662 21.3901 135.925 20.6371 135.925 19.6656C135.925 18.6859 135.662 17.9208 135.135 17.3702C134.609 16.8197 133.852 16.5444 132.864 16.5444H131.492V22.726H132.864ZM140.102 15.415V23.8554H138.718V15.415H140.102ZM146.304 23.8554L144.361 20.4792H143.305V23.8554H141.92V15.415H144.835C145.483 15.415 146.029 15.5283 146.474 15.755C146.928 15.9817 147.264 16.2853 147.482 16.6658C147.709 17.0464 147.822 17.4714 147.822 17.941C147.822 18.4916 147.66 18.9936 147.337 19.447C147.021 19.8923 146.531 20.1959 145.867 20.3578L147.956 23.8554H146.304ZM143.305 19.3741H144.835C145.353 19.3741 145.742 19.2445 146.001 18.9855C146.268 18.7264 146.401 18.3782 146.401 17.941C146.401 17.5038 146.272 17.1638 146.013 16.9209C145.754 16.6699 145.361 16.5444 144.835 16.5444H143.305V19.3741ZM155.505 15.415C156.404 15.415 157.189 15.589 157.861 15.9372C158.541 16.2772 159.063 16.7711 159.428 17.4188C159.8 18.0584 159.986 18.8073 159.986 19.6656C159.986 20.5238 159.8 21.2686 159.428 21.9002C159.063 22.5317 158.541 23.0175 157.861 23.3575C157.189 23.6895 156.404 23.8554 155.505 23.8554H152.748V15.415H155.505ZM155.505 22.726C156.493 22.726 157.25 22.4588 157.776 21.9245C158.302 21.3901 158.565 20.6371 158.565 19.6656C158.565 18.6859 158.302 17.9208 157.776 17.3702C157.25 16.8197 156.493 16.5444 155.505 16.5444H154.133V22.726H155.505ZM162.743 15.415V23.8554H161.359V15.415H162.743Z" fill="#FDFDFD"/>
<path d="M73.7985 51.0088H68.3438L67.4694 53.5904H63.7428L69.0309 38.9753H73.1531L78.4412 53.5904H74.6729L73.7985 51.0088ZM72.8824 48.2607L71.0712 42.9101L69.2807 48.2607H72.8824ZM92.0217 43.6804C92.0217 44.5271 91.8274 45.3043 91.4388 46.0122C91.0501 46.7062 90.4533 47.2683 89.6483 47.6985C88.8433 48.1288 87.844 48.3439 86.6503 48.3439H84.4435V53.5904H80.8834V38.9753H86.6503C87.8162 38.9753 88.8017 39.1765 89.6067 39.579C90.4117 39.9815 91.0154 40.5367 91.4179 41.2446C91.8204 41.9524 92.0217 42.7644 92.0217 43.6804ZM86.3797 45.5125C87.0598 45.5125 87.5664 45.3529 87.8995 45.0337C88.2326 44.7144 88.3991 44.2634 88.3991 43.6804C88.3991 43.0975 88.2326 42.6464 87.8995 42.3272C87.5664 42.0079 87.0598 41.8483 86.3797 41.8483H84.4435V45.5125H86.3797ZM105.846 43.6804C105.846 44.5271 105.652 45.3043 105.263 46.0122C104.875 46.7062 104.278 47.2683 103.473 47.6985C102.668 48.1288 101.668 48.3439 100.475 48.3439H98.268V53.5904H94.7079V38.9753H100.475C101.641 38.9753 102.626 39.1765 103.431 39.579C104.236 39.9815 104.84 40.5367 105.242 41.2446C105.645 41.9524 105.846 42.7644 105.846 43.6804ZM100.204 45.5125C100.884 45.5125 101.391 45.3529 101.724 45.0337C102.057 44.7144 102.224 44.2634 102.224 43.6804C102.224 43.0975 102.057 42.6464 101.724 42.3272C101.391 42.0079 100.884 41.8483 100.204 41.8483H98.268V45.5125H100.204ZM119.065 53.7361C117.996 53.7361 117.039 53.5626 116.192 53.2156C115.345 52.8687 114.665 52.3551 114.152 51.675C113.652 50.9949 113.388 50.176 113.361 49.2183H117.15C117.205 49.7596 117.393 50.176 117.712 50.4675C118.031 50.7451 118.447 50.8839 118.961 50.8839C119.488 50.8839 119.905 50.7659 120.21 50.53C120.516 50.2801 120.668 49.9401 120.668 49.5098C120.668 49.1489 120.543 48.8505 120.293 48.6146C120.058 48.3786 119.759 48.1843 119.398 48.0316C119.051 47.879 118.552 47.7055 117.899 47.5112C116.955 47.2197 116.185 46.9282 115.588 46.6368C114.991 46.3453 114.478 45.915 114.048 45.346C113.617 44.7769 113.402 44.0343 113.402 43.1183C113.402 41.7581 113.895 40.6963 114.88 39.9329C115.866 39.1557 117.15 38.7671 118.732 38.7671C120.342 38.7671 121.64 39.1557 122.625 39.9329C123.611 40.6963 124.138 41.765 124.207 43.1391H120.356C120.328 42.6672 120.155 42.2994 119.835 42.0357C119.516 41.7581 119.107 41.6193 118.607 41.6193C118.177 41.6193 117.83 41.7373 117.566 41.9732C117.302 42.1953 117.171 42.5215 117.171 42.9517C117.171 43.4236 117.393 43.7915 117.837 44.0552C118.281 44.3189 118.975 44.6034 119.919 44.9088C120.863 45.228 121.626 45.5333 122.209 45.8248C122.806 46.1163 123.319 46.5396 123.749 47.0948C124.18 47.65 124.395 48.3648 124.395 49.2392C124.395 50.0719 124.18 50.8284 123.749 51.5085C123.333 52.1886 122.722 52.7299 121.917 53.1324C121.112 53.5349 120.162 53.7361 119.065 53.7361ZM137.932 38.9753V41.8275H134.06V53.5904H130.5V41.8275H126.627V38.9753H137.932ZM147.464 53.7361C146.09 53.7361 144.827 53.4169 143.675 52.7784C142.537 52.14 141.627 51.2517 140.947 50.1136C140.281 48.9616 139.948 47.6708 139.948 46.2412C139.948 44.8116 140.281 43.5277 140.947 42.3896C141.627 41.2515 142.537 40.3632 143.675 39.7248C144.827 39.0863 146.09 38.7671 147.464 38.7671C148.838 38.7671 150.094 39.0863 151.232 39.7248C152.384 40.3632 153.286 41.2515 153.939 42.3896C154.605 43.5277 154.938 44.8116 154.938 46.2412C154.938 47.6708 154.605 48.9616 153.939 50.1136C153.272 51.2517 152.37 52.14 151.232 52.7784C150.094 53.4169 148.838 53.7361 147.464 53.7361ZM147.464 50.4883C148.63 50.4883 149.56 50.0997 150.254 49.3224C150.961 48.5452 151.315 47.5181 151.315 46.2412C151.315 44.9504 150.961 43.9233 150.254 43.1599C149.56 42.3827 148.63 41.9941 147.464 41.9941C146.284 41.9941 145.34 42.3757 144.632 43.1391C143.938 43.9025 143.591 44.9365 143.591 46.2412C143.591 47.532 143.938 48.566 144.632 49.3433C145.34 50.1066 146.284 50.4883 147.464 50.4883ZM165.205 53.5904L162.165 48.0733H161.311V53.5904H157.751V38.9753H163.726C164.878 38.9753 165.857 39.1765 166.662 39.579C167.481 39.9815 168.091 40.5367 168.494 41.2446C168.897 41.9385 169.098 42.7158 169.098 43.5763C169.098 44.5479 168.82 45.4154 168.265 46.1787C167.724 46.9421 166.919 47.4834 165.85 47.8026L169.223 53.5904H165.205ZM161.311 45.5542H163.518C164.171 45.5542 164.656 45.3945 164.976 45.0753C165.309 44.7561 165.475 44.305 165.475 43.7221C165.475 43.1669 165.309 42.7297 164.976 42.4104C164.656 42.0912 164.171 41.9316 163.518 41.9316H161.311V45.5542ZM175.725 41.8275V44.7838H180.493V47.532H175.725V50.7382H181.118V53.5904H172.165V38.9753H181.118V41.8275H175.725Z" fill="#FDFDFD"/>
</svg>
