<svg width="209" height="72" viewBox="0 0 209 72" fill="none" xmlns="http://www.w3.org/2000/svg">
<rect y="0.445801" width="208.735" height="71.5542" rx="6.93976" fill="#454545"/>
<path d="M41.3859 32.0591L20.3278 44.4986C19.088 45.2273 17.494 44.3598 17.494 42.9371V29.0576C17.494 23.0027 24.171 19.2205 29.5374 22.2393L37.6667 26.8195L41.3682 28.9015C42.5903 29.6128 42.608 31.3477 41.3859 32.0591Z" fill="#FDFDFD"/>
<path d="M42.4486 42.2258L35.2757 46.2855L28.1205 50.3279C25.5525 51.7679 22.6479 51.473 20.5403 50.0157C19.5131 49.3217 19.637 47.7776 20.7174 47.153L43.2279 33.9328C44.2905 33.3082 45.6897 33.8981 45.8845 35.0952C46.3273 37.7843 45.1938 40.6817 42.4486 42.2258Z" fill="#FDFDFD"/>
<path d="M67.0173 23.9405C66.4505 23.9405 65.9405 23.8433 65.4871 23.649C65.0337 23.4466 64.6774 23.1632 64.4183 22.7989C64.1592 22.4345 64.0297 22.0095 64.0297 21.5237H65.5113C65.5437 21.888 65.6854 22.1876 65.9364 22.4224C66.1955 22.6572 66.5558 22.7746 67.0173 22.7746C67.495 22.7746 67.8674 22.6612 68.1346 22.4345C68.4018 22.1997 68.5353 21.9002 68.5353 21.5358C68.5353 21.2524 68.4503 21.0217 68.2803 20.8436C68.1184 20.6655 67.9119 20.5278 67.6609 20.4307C67.418 20.3335 67.078 20.2283 66.6408 20.1149C66.0902 19.9692 65.6409 19.8234 65.2927 19.6777C64.9527 19.5239 64.6612 19.2891 64.4183 18.9733C64.1754 18.6576 64.054 18.2365 64.054 17.7103C64.054 17.2245 64.1754 16.7994 64.4183 16.4351C64.6612 16.0708 65.0013 15.7914 65.4385 15.5971C65.8757 15.4028 66.3817 15.3057 66.9565 15.3057C67.7743 15.3057 68.4422 15.5121 68.9604 15.925C69.4867 16.3298 69.7781 16.8885 69.8348 17.601H68.3046C68.2803 17.2933 68.1346 17.0302 67.8674 16.8116C67.6002 16.593 67.248 16.4837 66.8108 16.4837C66.4141 16.4837 66.0902 16.5849 65.8392 16.7873C65.5883 16.9897 65.4628 17.2812 65.4628 17.6617C65.4628 17.9208 65.5397 18.1353 65.6935 18.3054C65.8554 18.4673 66.0578 18.5968 66.3007 18.694C66.5436 18.7911 66.8756 18.8964 67.2966 19.0098C67.8552 19.1636 68.3086 19.3174 68.6568 19.4712C69.013 19.6251 69.3126 19.8639 69.5555 20.1878C69.8065 20.5035 69.932 20.9286 69.932 21.463C69.932 21.8921 69.8146 22.2969 69.5798 22.6774C69.3531 23.0579 69.0171 23.3656 68.5718 23.6004C68.1346 23.8271 67.6164 23.9405 67.0173 23.9405ZM72.9501 16.5323V19.0098H75.8648V20.1392H72.9501V22.726H76.2291V23.8554H71.5656V15.4028H76.2291V16.5323H72.9501ZM84.0431 17.8439C83.8245 17.4229 83.5209 17.1071 83.1323 16.8966C82.7436 16.678 82.2943 16.5687 81.7842 16.5687C81.2256 16.5687 80.7276 16.6942 80.2904 16.9452C79.8532 17.1962 79.5091 17.5524 79.2582 18.0139C79.0153 18.4754 78.8938 19.0098 78.8938 19.617C78.8938 20.2242 79.0153 20.7626 79.2582 21.2322C79.5091 21.6937 79.8532 22.0499 80.2904 22.3009C80.7276 22.5519 81.2256 22.6774 81.7842 22.6774C82.5372 22.6774 83.1485 22.4669 83.6181 22.0459C84.0876 21.6249 84.3751 21.0541 84.4803 20.3335H81.3106V19.2284H85.962V20.3092C85.8729 20.965 85.6381 21.5682 85.2576 22.1188C84.8851 22.6693 84.3953 23.1106 83.7881 23.4425C83.1889 23.7664 82.521 23.9283 81.7842 23.9283C80.9908 23.9283 80.2662 23.7461 79.6103 23.3818C78.9545 23.0094 78.4323 22.4952 78.0437 21.8394C77.6632 21.1836 77.4729 20.4428 77.4729 19.617C77.4729 18.7911 77.6632 18.0503 78.0437 17.3945C78.4323 16.7387 78.9545 16.2286 79.6103 15.8643C80.2742 15.4919 80.9989 15.3057 81.7842 15.3057C82.6829 15.3057 83.4804 15.5283 84.1767 15.9736C84.8811 16.4108 85.3912 17.0342 85.7069 17.8439H84.0431ZM88.7119 16.5323V19.0098H91.6266V20.1392H88.7119V22.726H91.991V23.8554H87.3275V15.4028H91.991V16.5323H88.7119ZM98.0804 23.8554L96.1373 20.4792H95.0807V23.8554H93.6963V15.415H96.611C97.2587 15.415 97.8052 15.5283 98.2505 15.755C98.7039 15.9817 99.0399 16.2853 99.2585 16.6658C99.4852 17.0464 99.5985 17.4714 99.5985 17.941C99.5985 18.4916 99.4366 18.9936 99.1127 19.447C98.797 19.8923 98.3071 20.1959 97.6432 20.3578L99.7321 23.8554H98.0804ZM95.0807 19.3741H96.611C97.1291 19.3741 97.5177 19.2445 97.7768 18.9855C98.044 18.7264 98.1776 18.3782 98.1776 17.941C98.1776 17.5038 98.0481 17.1638 97.789 16.9209C97.5299 16.6699 97.1372 16.5444 96.611 16.5444H95.0807V19.3741ZM106.458 22.1309H102.924L102.317 23.8554H100.872L103.896 15.4028H105.499L108.523 23.8554H107.065L106.458 22.1309ZM106.07 21.0015L104.697 17.0788L103.313 21.0015H106.07ZM119.733 15.415V23.8554H118.348V20.1635H114.377V23.8554H112.992V15.415H114.377V19.034H118.348V15.415H119.733ZM126.644 22.1309H123.11L122.503 23.8554H121.057L124.081 15.4028H125.684L128.708 23.8554H127.251L126.644 22.1309ZM126.255 21.0015L124.883 17.0788L123.498 21.0015H126.255ZM132.78 15.415C133.679 15.415 134.464 15.589 135.136 15.9372C135.816 16.2772 136.338 16.7711 136.703 17.4188C137.075 18.0584 137.261 18.8073 137.261 19.6656C137.261 20.5238 137.075 21.2686 136.703 21.9002C136.338 22.5317 135.816 23.0175 135.136 23.3575C134.464 23.6895 133.679 23.8554 132.78 23.8554H130.023V15.415H132.78ZM132.78 22.726C133.768 22.726 134.525 22.4588 135.051 21.9245C135.577 21.3901 135.841 20.6371 135.841 19.6656C135.841 18.6859 135.577 17.9208 135.051 17.3702C134.525 16.8197 133.768 16.5444 132.78 16.5444H131.408V22.726H132.78ZM140.018 15.415V23.8554H138.634V15.415H140.018ZM146.22 23.8554L144.277 20.4792H143.22V23.8554H141.836V15.415H144.75C145.398 15.415 145.945 15.5283 146.39 15.755C146.843 15.9817 147.179 16.2853 147.398 16.6658C147.625 17.0464 147.738 17.4714 147.738 17.941C147.738 18.4916 147.576 18.9936 147.252 19.447C146.936 19.8923 146.447 20.1959 145.783 20.3578L147.872 23.8554H146.22ZM143.22 19.3741H144.75C145.269 19.3741 145.657 19.2445 145.916 18.9855C146.184 18.7264 146.317 18.3782 146.317 17.941C146.317 17.5038 146.188 17.1638 145.928 16.9209C145.669 16.6699 145.277 16.5444 144.75 16.5444H143.22V19.3741ZM155.421 15.415C156.319 15.415 157.105 15.589 157.777 15.9372C158.457 16.2772 158.979 16.7711 159.343 17.4188C159.716 18.0584 159.902 18.8073 159.902 19.6656C159.902 20.5238 159.716 21.2686 159.343 21.9002C158.979 22.5317 158.457 23.0175 157.777 23.3575C157.105 23.6895 156.319 23.8554 155.421 23.8554H152.664V15.415H155.421ZM155.421 22.726C156.408 22.726 157.165 22.4588 157.692 21.9245C158.218 21.3901 158.481 20.6371 158.481 19.6656C158.481 18.6859 158.218 17.9208 157.692 17.3702C157.165 16.8197 156.408 16.5444 155.421 16.5444H154.048V22.726H155.421ZM162.659 15.415V23.8554H161.274V15.415H162.659Z" fill="#FDFDFD"/>
<path d="M74.3179 43.5971C74.0542 43.1114 73.6725 42.7435 73.1728 42.4937C72.6871 42.23 72.1111 42.0982 71.4448 42.0982C70.2928 42.0982 69.3698 42.4798 68.6759 43.2432C67.9819 43.9927 67.6349 44.999 67.6349 46.262C67.6349 47.6083 67.9958 48.6632 68.7175 49.4265C69.4531 50.176 70.4594 50.5508 71.7363 50.5508C72.6107 50.5508 73.3463 50.3287 73.9432 49.8846C74.5538 49.4404 74.998 48.802 75.2756 47.9692H70.7578V45.346H78.5026V48.6562C78.2389 49.5445 77.7878 50.3703 77.1493 51.1337C76.5247 51.8971 75.7267 52.5147 74.7551 52.9866C73.7835 53.4585 72.6871 53.6945 71.4657 53.6945C70.0222 53.6945 68.7314 53.3822 67.5933 52.7576C66.469 52.1192 65.5877 51.2378 64.9492 50.1136C64.3246 48.9893 64.0124 47.7055 64.0124 46.262C64.0124 44.8185 64.3246 43.5347 64.9492 42.4104C65.5877 41.2723 66.469 40.391 67.5933 39.7664C68.7175 39.1279 70.0014 38.8087 71.4448 38.8087C73.1937 38.8087 74.6649 39.232 75.8585 40.0787C77.066 40.9253 77.8641 42.0982 78.2527 43.5971H74.3179ZM86.5954 53.7569C85.4573 53.7569 84.4302 53.5141 83.5142 53.0283C82.612 52.5425 81.8972 51.8485 81.3698 50.9463C80.8562 50.0442 80.5995 48.9893 80.5995 47.7818C80.5995 46.5882 80.8632 45.5403 81.3906 44.6381C81.918 43.7221 82.6398 43.0211 83.5558 42.5354C84.4718 42.0496 85.4989 41.8067 86.6371 41.8067C87.7752 41.8067 88.8023 42.0496 89.7183 42.5354C90.6344 43.0211 91.3561 43.7221 91.8835 44.6381C92.4109 45.5403 92.6746 46.5882 92.6746 47.7818C92.6746 48.9755 92.404 50.0303 91.8627 50.9463C91.3353 51.8485 90.6066 52.5425 89.6767 53.0283C88.7606 53.5141 87.7335 53.7569 86.5954 53.7569ZM86.5954 50.6757C87.2755 50.6757 87.8515 50.4259 88.3234 49.9262C88.8092 49.4265 89.0521 48.7117 89.0521 47.7818C89.0521 46.8519 88.8161 46.1371 88.3442 45.6374C87.8862 45.1378 87.3172 44.8879 86.6371 44.8879C85.9431 44.8879 85.3671 45.1378 84.9091 45.6374C84.451 46.1232 84.222 46.838 84.222 47.7818C84.222 48.7117 84.4441 49.4265 84.8882 49.9262C85.3463 50.4259 85.9153 50.6757 86.5954 50.6757ZM100.684 53.7569C99.5461 53.7569 98.519 53.5141 97.603 53.0283C96.7008 52.5425 95.986 51.8485 95.4586 50.9463C94.945 50.0442 94.6883 48.9893 94.6883 47.7818C94.6883 46.5882 94.952 45.5403 95.4794 44.6381C96.0068 43.7221 96.7285 43.0211 97.6446 42.5354C98.5606 42.0496 99.5877 41.8067 100.726 41.8067C101.864 41.8067 102.891 42.0496 103.807 42.5354C104.723 43.0211 105.445 43.7221 105.972 44.6381C106.5 45.5403 106.763 46.5882 106.763 47.7818C106.763 48.9755 106.493 50.0303 105.951 50.9463C105.424 51.8485 104.695 52.5425 103.765 53.0283C102.849 53.5141 101.822 53.7569 100.684 53.7569ZM100.684 50.6757C101.364 50.6757 101.94 50.4259 102.412 49.9262C102.898 49.4265 103.141 48.7117 103.141 47.7818C103.141 46.8519 102.905 46.1371 102.433 45.6374C101.975 45.1378 101.406 44.8879 100.726 44.8879C100.032 44.8879 99.4559 45.1378 98.9979 45.6374C98.5398 46.1232 98.3108 46.838 98.3108 47.7818C98.3108 48.7117 98.5329 49.4265 98.977 49.9262C99.4351 50.4259 100.004 50.6757 100.684 50.6757ZM113.899 41.8067C114.717 41.8067 115.432 41.9732 116.043 42.3063C116.668 42.6395 117.146 43.0767 117.48 43.618V41.9732H121.04V53.5696C121.04 54.6383 120.824 55.6029 120.394 56.4635C119.978 57.3379 119.332 58.0318 118.458 58.5454C117.597 59.0589 116.522 59.3157 115.231 59.3157C113.51 59.3157 112.115 58.9062 111.046 58.0874C109.978 57.2823 109.367 56.1859 109.214 54.7979H112.733C112.844 55.2421 113.107 55.589 113.524 55.8389C113.94 56.1026 114.454 56.2344 115.064 56.2344C115.8 56.2344 116.383 56.0193 116.813 55.589C117.257 55.1727 117.48 54.4995 117.48 53.5696V51.9249C117.133 52.4662 116.654 52.9103 116.043 53.2573C115.432 53.5904 114.717 53.7569 113.899 53.7569C112.941 53.7569 112.073 53.5141 111.296 53.0283C110.519 52.5286 109.901 51.8277 109.443 50.9255C108.999 50.0095 108.777 48.9546 108.777 47.761C108.777 46.5674 108.999 45.5195 109.443 44.6173C109.901 43.7151 110.519 43.0211 111.296 42.5354C112.073 42.0496 112.941 41.8067 113.899 41.8067ZM117.48 47.7818C117.48 46.8935 117.23 46.1926 116.73 45.6791C116.244 45.1655 115.647 44.9088 114.94 44.9088C114.232 44.9088 113.628 45.1655 113.128 45.6791C112.643 46.1787 112.4 46.8727 112.4 47.761C112.4 48.6493 112.643 49.3571 113.128 49.8846C113.628 50.3981 114.232 50.6549 114.94 50.6549C115.647 50.6549 116.244 50.3981 116.73 49.8846C117.23 49.371 117.48 48.6701 117.48 47.7818ZM128.008 38.1841V53.5904H124.448V38.1841H128.008ZM142.372 47.5944C142.372 47.9275 142.351 48.2745 142.309 48.6354H134.252C134.308 49.3571 134.537 49.9123 134.939 50.3009C135.356 50.6757 135.862 50.8631 136.459 50.8631C137.347 50.8631 137.965 50.4883 138.312 49.7388H142.101C141.907 50.5022 141.553 51.1892 141.039 51.7999C140.54 52.4106 139.908 52.8895 139.145 53.2365C138.381 53.5835 137.528 53.7569 136.584 53.7569C135.446 53.7569 134.433 53.5141 133.544 53.0283C132.656 52.5425 131.962 51.8485 131.462 50.9463C130.963 50.0442 130.713 48.9893 130.713 47.7818C130.713 46.5743 130.956 45.5195 131.442 44.6173C131.941 43.7151 132.635 43.0211 133.524 42.5354C134.412 42.0496 135.432 41.8067 136.584 41.8067C137.708 41.8067 138.708 42.0426 139.582 42.5145C140.456 42.9864 141.136 43.6596 141.622 44.534C142.122 45.4084 142.372 46.4286 142.372 47.5944ZM138.728 46.6576C138.728 46.0469 138.52 45.5611 138.104 45.2002C137.687 44.8394 137.167 44.6589 136.542 44.6589C135.946 44.6589 135.439 44.8324 135.023 45.1794C134.62 45.5264 134.37 46.0191 134.273 46.6576H138.728ZM161.466 43.6804C161.466 44.5271 161.271 45.3043 160.883 46.0122C160.494 46.7062 159.897 47.2683 159.092 47.6985C158.287 48.1288 157.288 48.3439 156.094 48.3439H153.887V53.5904H150.327V38.9753H156.094C157.26 38.9753 158.246 39.1765 159.051 39.579C159.856 39.9815 160.459 40.5367 160.862 41.2446C161.264 41.9524 161.466 42.7644 161.466 43.6804ZM155.824 45.5125C156.504 45.5125 157.01 45.3529 157.343 45.0337C157.676 44.7144 157.843 44.2634 157.843 43.6804C157.843 43.0975 157.676 42.6464 157.343 42.3272C157.01 42.0079 156.504 41.8483 155.824 41.8483H153.887V45.5125H155.824ZM167.712 38.1841V53.5904H164.152V38.1841H167.712ZM170.417 47.761C170.417 46.5674 170.639 45.5195 171.083 44.6173C171.541 43.7151 172.159 43.0211 172.936 42.5354C173.713 42.0496 174.581 41.8067 175.538 41.8067C176.357 41.8067 177.072 41.9732 177.683 42.3063C178.307 42.6395 178.786 43.0767 179.119 43.618V41.9732H182.679V53.5904H179.119V51.9457C178.772 52.487 178.286 52.9242 177.662 53.2573C177.051 53.5904 176.336 53.7569 175.517 53.7569C174.574 53.7569 173.713 53.5141 172.936 53.0283C172.159 52.5286 171.541 51.8277 171.083 50.9255C170.639 50.0095 170.417 48.9546 170.417 47.761ZM179.119 47.7818C179.119 46.8935 178.869 46.1926 178.37 45.6791C177.884 45.1655 177.287 44.9088 176.579 44.9088C175.871 44.9088 175.268 45.1655 174.768 45.6791C174.282 46.1787 174.039 46.8727 174.039 47.761C174.039 48.6493 174.282 49.3571 174.768 49.8846C175.268 50.3981 175.871 50.6549 176.579 50.6549C177.287 50.6549 177.884 50.3981 178.37 49.8846C178.869 49.371 179.119 48.6701 179.119 47.7818ZM197.955 41.9732L190.668 59.1075H186.837L189.502 53.1948L184.776 41.9732H188.753L191.438 49.2392L194.103 41.9732H197.955Z" fill="#FDFDFD"/>
</svg>
