<svg width="200" height="48" viewBox="0 0 200 48" fill="none" xmlns="http://www.w3.org/2000/svg">
<mask id="path-1-outside-1_2574_182" maskUnits="userSpaceOnUse" x="1" y="12.5" width="87" height="25" fill="black">
<rect fill="white" x="1" y="12.5" width="87" height="25"/>
<path d="M2.06288 36.5V13.2144H11.9085C13.5129 13.2144 14.8882 13.4853 16.0342 14.0271C17.1803 14.5688 18.0554 15.3502 18.6597 16.3713C19.264 17.3714 19.5661 18.5904 19.5661 20.0282C19.5661 21.0492 19.2848 22.0286 18.7222 22.9662C18.1596 23.8831 17.2324 24.654 15.9405 25.2792V22.9037C17.1699 23.383 18.118 23.956 18.7847 24.6228C19.4515 25.2896 19.91 26.0189 20.16 26.8107C20.41 27.5817 20.5351 28.3943 20.5351 29.2487C20.5351 31.5407 19.7745 33.3223 18.2534 34.5934C16.7323 35.8645 14.6173 36.5 11.9085 36.5H2.06288ZM6.90754 32.2805H12.4711C13.4504 32.2805 14.2318 31.9992 14.8153 31.4366C15.3987 30.874 15.6904 30.1447 15.6904 29.2487C15.6904 28.3318 15.3987 27.5921 14.8153 27.0295C14.2318 26.4669 13.4504 26.1856 12.4711 26.1856H6.90754V32.2805ZM6.90754 21.966H12.2523C13.0024 21.966 13.5963 21.7577 14.0339 21.3409C14.4923 20.9033 14.7215 20.3303 14.7215 19.6219C14.7215 18.9134 14.4923 18.3508 14.0339 17.934C13.5963 17.4965 13.0024 17.2777 12.2523 17.2777H6.90754V21.966ZM23.6428 36.5V13.2144H39.302V17.434H28.4875V22.7162H38.6769V26.9357H28.4875V32.2805H39.302V36.5H23.6428ZM42.0484 36.5V13.2144H45.7678L58.2701 29.6862L56.2698 30.1551V13.2144H61.1144V36.5H57.3637L45.0802 19.9032L46.893 19.4343V36.5H42.0484ZM76.4356 36.8751C74.7686 36.8751 73.2163 36.5729 71.7785 35.9687C70.3407 35.3644 69.0801 34.5205 67.9965 33.4369C66.913 32.3534 66.0691 31.0823 65.4648 29.6237C64.8605 28.1651 64.5584 26.5711 64.5584 24.8416C64.5584 23.1121 64.8501 21.518 65.4336 20.0594C66.017 18.58 66.8401 17.3089 67.9028 16.2462C68.9655 15.1627 70.2053 14.3292 71.6222 13.7458C73.06 13.1415 74.6228 12.8393 76.3106 12.8393C77.9984 12.8393 79.5091 13.1206 80.8427 13.6833C82.1971 14.2459 83.3432 14.996 84.2808 15.9337C85.2185 16.8713 85.8853 17.9132 86.2812 19.0593L81.9992 21.1221C81.6032 19.9969 80.9052 19.0697 79.905 18.3404C78.9257 17.5902 77.7275 17.2152 76.3106 17.2152C74.9353 17.2152 73.7268 17.5381 72.6849 18.1841C71.6431 18.83 70.8304 19.726 70.247 20.8721C69.6844 21.9973 69.4031 23.3205 69.4031 24.8416C69.4031 26.3627 69.7052 27.6963 70.3095 28.8423C70.9138 29.9884 71.7368 30.8844 72.7787 31.5303C73.8414 32.1763 75.0604 32.4993 76.4356 32.4993C77.4983 32.4993 78.4881 32.3013 79.4049 31.9054C80.3426 31.4887 81.0927 30.8948 81.6553 30.1238C82.2388 29.3528 82.5305 28.4256 82.5305 27.342V25.4042L84.7497 27.2795H76.3106V23.2163H87.3752V25.6855C87.3752 27.5817 87.0626 29.2382 86.4375 30.6552C85.8124 32.0513 84.9685 33.2181 83.9058 34.1558C82.8639 35.0727 81.6866 35.7603 80.3738 36.2187C79.0819 36.6563 77.7692 36.8751 76.4356 36.8751Z"/>
</mask>
<path d="M2.06288 36.5V13.2144H11.9085C13.5129 13.2144 14.8882 13.4853 16.0342 14.0271C17.1803 14.5688 18.0554 15.3502 18.6597 16.3713C19.264 17.3714 19.5661 18.5904 19.5661 20.0282C19.5661 21.0492 19.2848 22.0286 18.7222 22.9662C18.1596 23.8831 17.2324 24.654 15.9405 25.2792V22.9037C17.1699 23.383 18.118 23.956 18.7847 24.6228C19.4515 25.2896 19.91 26.0189 20.16 26.8107C20.41 27.5817 20.5351 28.3943 20.5351 29.2487C20.5351 31.5407 19.7745 33.3223 18.2534 34.5934C16.7323 35.8645 14.6173 36.5 11.9085 36.5H2.06288ZM6.90754 32.2805H12.4711C13.4504 32.2805 14.2318 31.9992 14.8153 31.4366C15.3987 30.874 15.6904 30.1447 15.6904 29.2487C15.6904 28.3318 15.3987 27.5921 14.8153 27.0295C14.2318 26.4669 13.4504 26.1856 12.4711 26.1856H6.90754V32.2805ZM6.90754 21.966H12.2523C13.0024 21.966 13.5963 21.7577 14.0339 21.3409C14.4923 20.9033 14.7215 20.3303 14.7215 19.6219C14.7215 18.9134 14.4923 18.3508 14.0339 17.934C13.5963 17.4965 13.0024 17.2777 12.2523 17.2777H6.90754V21.966ZM23.6428 36.5V13.2144H39.302V17.434H28.4875V22.7162H38.6769V26.9357H28.4875V32.2805H39.302V36.5H23.6428ZM42.0484 36.5V13.2144H45.7678L58.2701 29.6862L56.2698 30.1551V13.2144H61.1144V36.5H57.3637L45.0802 19.9032L46.893 19.4343V36.5H42.0484ZM76.4356 36.8751C74.7686 36.8751 73.2163 36.5729 71.7785 35.9687C70.3407 35.3644 69.0801 34.5205 67.9965 33.4369C66.913 32.3534 66.0691 31.0823 65.4648 29.6237C64.8605 28.1651 64.5584 26.5711 64.5584 24.8416C64.5584 23.1121 64.8501 21.518 65.4336 20.0594C66.017 18.58 66.8401 17.3089 67.9028 16.2462C68.9655 15.1627 70.2053 14.3292 71.6222 13.7458C73.06 13.1415 74.6228 12.8393 76.3106 12.8393C77.9984 12.8393 79.5091 13.1206 80.8427 13.6833C82.1971 14.2459 83.3432 14.996 84.2808 15.9337C85.2185 16.8713 85.8853 17.9132 86.2812 19.0593L81.9992 21.1221C81.6032 19.9969 80.9052 19.0697 79.905 18.3404C78.9257 17.5902 77.7275 17.2152 76.3106 17.2152C74.9353 17.2152 73.7268 17.5381 72.6849 18.1841C71.6431 18.83 70.8304 19.726 70.247 20.8721C69.6844 21.9973 69.4031 23.3205 69.4031 24.8416C69.4031 26.3627 69.7052 27.6963 70.3095 28.8423C70.9138 29.9884 71.7368 30.8844 72.7787 31.5303C73.8414 32.1763 75.0604 32.4993 76.4356 32.4993C77.4983 32.4993 78.4881 32.3013 79.4049 31.9054C80.3426 31.4887 81.0927 30.8948 81.6553 30.1238C82.2388 29.3528 82.5305 28.4256 82.5305 27.342V25.4042L84.7497 27.2795H76.3106V23.2163H87.3752V25.6855C87.3752 27.5817 87.0626 29.2382 86.4375 30.6552C85.8124 32.0513 84.9685 33.2181 83.9058 34.1558C82.8639 35.0727 81.6866 35.7603 80.3738 36.2187C79.0819 36.6563 77.7692 36.8751 76.4356 36.8751Z" fill="#81A4DC"/>
<path d="M2.06288 36.5H1.83963V36.7233H2.06288V36.5ZM2.06288 13.2144V12.9912H1.83963V13.2144H2.06288ZM16.0342 14.0271L15.9388 14.2289L15.9388 14.2289L16.0342 14.0271ZM18.6597 16.3713L18.4676 16.485L18.4686 16.4867L18.6597 16.3713ZM18.7222 22.9662L18.9125 23.083L18.9137 23.0811L18.7222 22.9662ZM15.9405 25.2792H15.7172V25.6352L16.0377 25.4801L15.9405 25.2792ZM15.9405 22.9037L16.0216 22.6957L15.7172 22.5771V22.9037H15.9405ZM20.16 26.8107L19.9471 26.8779L19.9476 26.8796L20.16 26.8107ZM18.2534 34.5934L18.3966 34.7647L18.3966 34.7647L18.2534 34.5934ZM6.90754 32.2805H6.68428V32.5037H6.90754V32.2805ZM14.8153 31.4366L14.9702 31.5973L14.9702 31.5973L14.8153 31.4366ZM14.8153 27.0295L14.6603 27.1902L14.8153 27.0295ZM6.90754 26.1856V25.9623H6.68428V26.1856H6.90754ZM6.90754 21.966H6.68428V22.1893H6.90754V21.966ZM14.0339 21.3409L14.1878 21.5026L14.188 21.5024L14.0339 21.3409ZM14.0339 17.934L13.8758 18.0921L13.8837 18.0992L14.0339 17.934ZM6.90754 17.2777V17.0544H6.68428V17.2777H6.90754ZM2.28614 36.5V13.2144H1.83963V36.5H2.28614ZM2.06288 13.4377H11.9085V12.9912H2.06288V13.4377ZM11.9085 13.4377C13.4884 13.4377 14.8294 13.7045 15.9388 14.2289L16.1296 13.8252C14.9469 13.2661 13.5374 12.9912 11.9085 12.9912V13.4377ZM15.9388 14.2289C17.0475 14.753 17.8876 15.505 18.4676 16.485L18.8519 16.2575C18.2233 15.1955 17.3131 14.3847 16.1296 13.8252L15.9388 14.2289ZM18.4686 16.4867C19.0475 17.4448 19.3429 18.6218 19.3429 20.0282H19.7894C19.7894 18.5591 19.4805 17.298 18.8508 16.2558L18.4686 16.4867ZM19.3429 20.0282C19.3429 21.0059 19.0741 21.9458 18.5308 22.8514L18.9137 23.0811C19.4956 22.1113 19.7894 21.0926 19.7894 20.0282H19.3429ZM18.5319 22.8495C17.998 23.7196 17.1092 24.4656 15.8432 25.0782L16.0377 25.4801C17.3555 24.8425 18.3213 24.0465 18.9125 23.083L18.5319 22.8495ZM16.1637 25.2792V22.9037H15.7172V25.2792H16.1637ZM15.8594 23.1117C17.0707 23.5839 17.9888 24.1426 18.6269 24.7807L18.9426 24.4649C18.2471 23.7694 17.269 23.182 16.0216 22.6957L15.8594 23.1117ZM18.6269 24.7807C19.2718 25.4256 19.7092 26.1247 19.9471 26.8779L20.3729 26.7435C20.1107 25.9131 19.6313 25.1536 18.9426 24.4649L18.6269 24.7807ZM19.9476 26.8796C20.1901 27.6271 20.3118 28.4164 20.3118 29.2487H20.7583C20.7583 28.3722 20.63 27.5362 20.3724 26.7418L19.9476 26.8796ZM20.3118 29.2487C20.3118 31.4861 19.5724 33.2003 18.1102 34.4221L18.3966 34.7647C19.9767 33.4443 20.7583 31.5954 20.7583 29.2487H20.3118ZM18.1102 34.4221C16.6419 35.6491 14.5841 36.2767 11.9085 36.2767V36.7233C14.6505 36.7233 16.8227 36.0798 18.3966 34.7647L18.1102 34.4221ZM11.9085 36.2767H2.06288V36.7233H11.9085V36.2767ZM6.90754 32.5037H12.4711V32.0572H6.90754V32.5037ZM12.4711 32.5037C13.4954 32.5037 14.3368 32.2081 14.9702 31.5973L14.6603 31.2758C14.1268 31.7903 13.4054 32.0572 12.4711 32.0572V32.5037ZM14.9702 31.5973C15.6021 30.9879 15.9137 30.1982 15.9137 29.2487H15.4672C15.4672 30.0911 15.1953 30.76 14.6603 31.2758L14.9702 31.5973ZM15.9137 29.2487C15.9137 28.2799 15.6032 27.4791 14.9702 26.8688L14.6603 27.1902C15.1942 27.705 15.4672 28.3837 15.4672 29.2487H15.9137ZM14.9702 26.8688C14.3368 26.258 13.4954 25.9623 12.4711 25.9623V26.4088C13.4054 26.4088 14.1268 26.6758 14.6603 27.1902L14.9702 26.8688ZM12.4711 25.9623H6.90754V26.4088H12.4711V25.9623ZM6.68428 26.1856V32.2805H7.13079V26.1856H6.68428ZM6.90754 22.1893H12.2523V21.7428H6.90754V22.1893ZM12.2523 22.1893C13.0452 22.1893 13.6993 21.9679 14.1878 21.5026L13.8799 21.1793C13.4933 21.5475 12.9596 21.7428 12.2523 21.7428V22.1893ZM14.188 21.5024C14.696 21.0175 14.9447 20.3834 14.9447 19.6219H14.4982C14.4982 20.2772 14.2886 20.7892 13.8797 21.1794L14.188 21.5024ZM14.9447 19.6219C14.9447 18.8605 14.6959 18.2342 14.184 17.7688L13.8837 18.0992C14.2887 18.4674 14.4982 18.9663 14.4982 19.6219H14.9447ZM14.1917 17.7762C13.7037 17.2881 13.0482 17.0544 12.2523 17.0544V17.5009C12.9566 17.5009 13.4889 17.7048 13.876 18.0919L14.1917 17.7762ZM12.2523 17.0544H6.90754V17.5009H12.2523V17.0544ZM6.68428 17.2777V21.966H7.13079V17.2777H6.68428ZM23.6428 36.5H23.4196V36.7233H23.6428V36.5ZM23.6428 13.2144V12.9912H23.4196V13.2144H23.6428ZM39.302 13.2144H39.5252V12.9912H39.302V13.2144ZM39.302 17.434V17.6572H39.5252V17.434H39.302ZM28.4875 17.434V17.2107H28.2642V17.434H28.4875ZM28.4875 22.7162H28.2642V22.9394H28.4875V22.7162ZM38.6769 22.7162H38.9001V22.4929H38.6769V22.7162ZM38.6769 26.9357V27.159H38.9001V26.9357H38.6769ZM28.4875 26.9357V26.7125H28.2642V26.9357H28.4875ZM28.4875 32.2805H28.2642V32.5037H28.4875V32.2805ZM39.302 32.2805H39.5252V32.0572H39.302V32.2805ZM39.302 36.5V36.7233H39.5252V36.5H39.302ZM23.8661 36.5V13.2144H23.4196V36.5H23.8661ZM23.6428 13.4377H39.302V12.9912H23.6428V13.4377ZM39.0787 13.2144V17.434H39.5252V13.2144H39.0787ZM39.302 17.2107H28.4875V17.6572H39.302V17.2107ZM28.2642 17.434V22.7162H28.7107V17.434H28.2642ZM28.4875 22.9394H38.6769V22.4929H28.4875V22.9394ZM38.4536 22.7162V26.9357H38.9001V22.7162H38.4536ZM38.6769 26.7125H28.4875V27.159H38.6769V26.7125ZM28.2642 26.9357V32.2805H28.7107V26.9357H28.2642ZM28.4875 32.5037H39.302V32.0572H28.4875V32.5037ZM39.0787 32.2805V36.5H39.5252V32.2805H39.0787ZM39.302 36.2767H23.6428V36.7233H39.302V36.2767ZM42.0484 36.5H41.8251V36.7233H42.0484V36.5ZM42.0484 13.2144V12.9912H41.8251V13.2144H42.0484ZM45.7678 13.2144L45.9456 13.0794L45.8786 12.9912H45.7678V13.2144ZM58.2701 29.6862L58.3211 29.9036L58.6558 29.8251L58.448 29.5513L58.2701 29.6862ZM56.2698 30.1551H56.0465V30.4367L56.3207 30.3724L56.2698 30.1551ZM56.2698 13.2144V12.9912H56.0465V13.2144H56.2698ZM61.1144 13.2144H61.3377V12.9912H61.1144V13.2144ZM61.1144 36.5V36.7233H61.3377V36.5H61.1144ZM57.3637 36.5L57.1843 36.6328L57.2512 36.7233H57.3637V36.5ZM45.0802 19.9032L45.0243 19.687L44.7038 19.7699L44.9007 20.036L45.0802 19.9032ZM46.893 19.4343H47.1163V19.146L46.8371 19.2182L46.893 19.4343ZM46.893 36.5V36.7233H47.1163V36.5H46.893ZM42.2716 36.5V13.2144H41.8251V36.5H42.2716ZM42.0484 13.4377H45.7678V12.9912H42.0484V13.4377ZM45.59 13.3494L58.0923 29.8212L58.448 29.5513L45.9456 13.0794L45.59 13.3494ZM58.2192 29.4689L56.2188 29.9377L56.3207 30.3724L58.3211 29.9036L58.2192 29.4689ZM56.493 30.1551V13.2144H56.0465V30.1551H56.493ZM56.2698 13.4377H61.1144V12.9912H56.2698V13.4377ZM60.8911 13.2144V36.5H61.3377V13.2144H60.8911ZM61.1144 36.2767H57.3637V36.7233H61.1144V36.2767ZM57.5432 36.3672L45.2596 19.7703L44.9007 20.036L57.1843 36.6328L57.5432 36.3672ZM45.1361 20.1193L46.9489 19.6505L46.8371 19.2182L45.0243 19.687L45.1361 20.1193ZM46.6698 19.4343V36.5H47.1163V19.4343H46.6698ZM46.893 36.2767H42.0484V36.7233H46.893V36.2767ZM71.7785 35.9687L71.692 36.1745L71.692 36.1745L71.7785 35.9687ZM67.9965 33.4369L68.1544 33.2791L68.1544 33.2791L67.9965 33.4369ZM65.4648 29.6237L65.6711 29.5383L65.6711 29.5383L65.4648 29.6237ZM65.4336 20.0594L65.6409 20.1424L65.6413 20.1413L65.4336 20.0594ZM67.9028 16.2462L68.0606 16.4041L68.0622 16.4026L67.9028 16.2462ZM71.6222 13.7458L71.7072 13.9522L71.7087 13.9516L71.6222 13.7458ZM80.8427 13.6833L80.7559 13.889L80.757 13.8894L80.8427 13.6833ZM86.2812 19.0593L86.3781 19.2604L86.5571 19.1742L86.4922 18.9864L86.2812 19.0593ZM81.9992 21.1221L81.7886 21.1962L81.8713 21.4315L82.096 21.3233L81.9992 21.1221ZM79.905 18.3404L79.7692 18.5177L79.7735 18.5208L79.905 18.3404ZM72.6849 18.1841L72.8026 18.3738L72.8026 18.3738L72.6849 18.1841ZM70.247 20.8721L70.048 20.7708L70.0473 20.7722L70.247 20.8721ZM70.3095 28.8423L70.507 28.7382L70.507 28.7382L70.3095 28.8423ZM72.7787 31.5303L72.661 31.7201L72.6627 31.7211L72.7787 31.5303ZM79.4049 31.9054L79.4934 32.1104L79.4956 32.1094L79.4049 31.9054ZM81.6553 30.1238L81.4773 29.9891L81.475 29.9922L81.6553 30.1238ZM82.5305 25.4042L82.6746 25.2337L82.3072 24.9232V25.4042H82.5305ZM84.7497 27.2795V27.5028H85.3597L84.8938 27.109L84.7497 27.2795ZM76.3106 27.2795H76.0873V27.5028H76.3106V27.2795ZM76.3106 23.2163V22.993H76.0873V23.2163H76.3106ZM87.3752 23.2163H87.5984V22.993H87.3752V23.2163ZM86.4375 30.6552L86.6412 30.7464L86.6417 30.7453L86.4375 30.6552ZM83.9058 34.1558L84.0532 34.3234L84.0535 34.3232L83.9058 34.1558ZM80.3738 36.2187L80.4455 36.4302L80.4475 36.4295L80.3738 36.2187ZM76.4356 36.6518C74.7963 36.6518 73.2735 36.3548 71.865 35.7628L71.692 36.1745C73.159 36.791 74.741 37.0983 76.4356 37.0983V36.6518ZM71.865 35.7628C70.4534 35.1696 69.2171 34.3418 68.1544 33.2791L67.8387 33.5948C68.943 34.6992 70.228 35.5592 71.692 36.1745L71.865 35.7628ZM68.1544 33.2791C67.0922 32.2169 66.2645 30.9706 65.6711 29.5383L65.2586 29.7092C65.8737 31.194 66.7338 32.4899 67.8387 33.5948L68.1544 33.2791ZM65.6711 29.5383C65.0791 28.1092 64.7817 26.5446 64.7817 24.8416H64.3351C64.3351 26.5976 64.642 28.221 65.2586 29.7092L65.6711 29.5383ZM64.7817 24.8416C64.7817 23.1376 65.069 21.572 65.6409 20.1424L65.2263 19.9765C64.6313 21.464 64.3351 23.0866 64.3351 24.8416H64.7817ZM65.6413 20.1413C66.2141 18.6887 67.0208 17.4439 68.0606 16.4041L67.7449 16.0884C66.6593 17.1739 65.8199 18.4713 65.2259 19.9775L65.6413 20.1413ZM68.0622 16.4026C69.1035 15.3408 70.3179 14.5243 71.7072 13.9522L71.5372 13.5393C70.0926 14.1342 68.8274 14.9846 67.7434 16.0899L68.0622 16.4026ZM71.7087 13.9516C73.1169 13.3597 74.65 13.0626 76.3106 13.0626V12.6161C74.5955 12.6161 73.0031 12.9232 71.5357 13.5399L71.7087 13.9516ZM76.3106 13.0626C77.9735 13.0626 79.454 13.3397 80.7559 13.889L80.9295 13.4776C79.5642 12.9016 78.0233 12.6161 76.3106 12.6161V13.0626ZM80.757 13.8894C82.0873 14.442 83.2081 15.1766 84.123 16.0915L84.4387 15.7758C83.4782 14.8154 82.3069 14.0497 80.9283 13.4771L80.757 13.8894ZM84.123 16.0915C85.039 17.0076 85.6863 18.021 86.0702 19.1322L86.4922 18.9864C86.0843 17.8054 85.398 16.7351 84.4387 15.7758L84.123 16.0915ZM86.1843 18.8581L81.9023 20.921L82.096 21.3233L86.3781 19.2604L86.1843 18.8581ZM82.2098 21.048C81.7983 19.8785 81.0718 18.9148 80.0365 18.16L79.7735 18.5208C80.7386 19.2245 81.4082 20.1153 81.7886 21.1962L82.2098 21.048ZM80.0408 18.1631C79.0168 17.3788 77.769 16.9919 76.3106 16.9919V17.4384C77.6861 17.4384 78.8345 17.8016 79.7693 18.5176L80.0408 18.1631ZM76.3106 16.9919C74.899 16.9919 73.6486 17.3239 72.5673 17.9943L72.8026 18.3738C73.8049 17.7524 74.9717 17.4384 76.3106 17.4384V16.9919ZM72.5673 17.9943C71.489 18.6629 70.649 19.5903 70.048 20.7708L70.4459 20.9734C71.0118 19.8618 71.7971 18.9972 72.8026 18.3738L72.5673 17.9943ZM70.0473 20.7722C69.4663 21.9343 69.1798 23.293 69.1798 24.8416H69.6263C69.6263 23.348 69.9025 22.0603 70.4466 20.9719L70.0473 20.7722ZM69.1798 24.8416C69.1798 26.3927 69.4881 27.7631 70.112 28.9465L70.507 28.7382C69.9223 27.6294 69.6263 26.3327 69.6263 24.8416H69.1798ZM70.112 28.9465C70.7337 30.1256 71.5835 31.052 72.661 31.7201L72.8963 31.3406C71.8902 30.7168 71.0938 29.8512 70.507 28.7382L70.112 28.9465ZM72.6627 31.7211C73.764 32.3905 75.0239 32.7225 76.4356 32.7225V32.276C75.0968 32.276 73.9188 31.9621 72.8946 31.3395L72.6627 31.7211ZM76.4356 32.7225C77.5268 32.7225 78.5469 32.5191 79.4934 32.1104L79.3164 31.7004C78.4293 32.0835 77.4699 32.276 76.4356 32.276V32.7225ZM79.4956 32.1094C80.4662 31.678 81.2483 31.0603 81.8357 30.2554L81.475 29.9922C80.9371 30.7293 80.219 31.2993 79.3142 31.7014L79.4956 32.1094ZM81.8334 30.2585C82.4497 29.4441 82.7538 28.468 82.7538 27.342H82.3072C82.3072 28.3831 82.0279 29.2615 81.4773 29.9891L81.8334 30.2585ZM82.7538 27.342V25.4042H82.3072V27.342H82.7538ZM82.3864 25.5747L84.6056 27.4501L84.8938 27.109L82.6746 25.2337L82.3864 25.5747ZM84.7497 27.0563H76.3106V27.5028H84.7497V27.0563ZM76.5338 27.2795V23.2163H76.0873V27.2795H76.5338ZM76.3106 23.4395H87.3752V22.993H76.3106V23.4395ZM87.1519 23.2163V25.6855H87.5984V23.2163H87.1519ZM87.1519 25.6855C87.1519 27.5574 86.8433 29.1821 86.2332 30.565L86.6417 30.7453C87.2819 29.2943 87.5984 27.6059 87.5984 25.6855H87.1519ZM86.2337 30.5639C85.6206 31.9333 84.795 33.0735 83.758 33.9884L84.0535 34.3232C85.1419 33.3628 86.0041 32.1693 86.6412 30.7464L86.2337 30.5639ZM83.7583 33.9882C82.7381 34.886 81.5859 35.559 80.3002 36.0079L80.4475 36.4295C81.7873 35.9616 82.9897 35.2593 84.0532 34.3234L83.7583 33.9882ZM80.3022 36.0072C79.0329 36.4372 77.7443 36.6518 76.4356 36.6518V37.0983C77.7941 37.0983 79.131 36.8754 80.4455 36.4302L80.3022 36.0072Z" fill="#81A4DC" mask="url(#path-1-outside-1_2574_182)"/>
<g clip-path="url(#clip0_2574_182)">
<path d="M115.771 15.2644C115.266 15.3993 114.794 15.5378 114.354 15.6799C113.914 15.8219 113.484 15.9817 113.065 16.1592C112.646 16.3368 112.252 16.5605 111.882 16.8304C111.513 17.1003 111.126 17.4234 110.721 17.7998C110.16 18.3609 109.691 18.9716 109.315 19.6321C108.939 20.2926 108.655 20.9886 108.463 21.7201C108.271 22.4516 108.179 23.1902 108.186 23.9359C108.193 24.6816 108.289 25.4167 108.473 26.1411C108.658 26.8655 108.939 27.558 109.315 28.2184C109.691 28.8789 110.16 29.4968 110.721 30.0721C110.885 30.2354 111.055 30.3917 111.233 30.5408C111.41 30.6899 111.598 30.8355 111.797 30.9776L111.797 48.1502C111.797 48.832 111.925 49.4783 112.181 50.089C112.436 50.6998 112.806 51.2467 113.289 51.7296C113.779 52.2196 114.333 52.5889 114.95 52.8375C115.568 53.0861 116.2 53.2068 116.847 53.1997C117.493 53.1926 118.129 53.0683 118.754 52.8269C119.379 52.5854 119.936 52.2196 120.426 51.7296C120.902 51.2538 121.268 50.7105 121.523 50.0997C121.779 49.4889 121.91 48.8391 121.918 48.1502L121.918 30.9776C122.109 30.8426 122.294 30.7006 122.471 30.5514C122.649 30.4023 122.823 30.2425 122.993 30.0721C123.555 29.511 124.023 28.9002 124.4 28.2397C124.776 27.5793 125.06 26.8833 125.252 26.1518C125.444 25.4203 125.536 24.6816 125.529 23.9359C125.522 23.1902 125.426 22.4552 125.241 21.7308C125.057 21.0064 124.776 20.3139 124.4 19.6534C124.023 18.9929 123.555 18.3751 122.993 17.7998C122.61 17.4163 122.23 17.0932 121.854 16.8304C121.477 16.5676 121.076 16.3439 120.65 16.1592C120.224 15.9746 119.798 15.8112 119.371 15.6692C118.945 15.5272 118.469 15.3922 117.944 15.2644L117.944 23.659L115.771 23.659L115.771 15.2644ZM112.085 28.7085C111.424 28.048 110.931 27.3058 110.604 26.482C110.277 25.6582 110.114 24.813 110.114 23.9466C110.114 23.0801 110.277 22.235 110.604 21.4112C110.931 20.5873 111.424 19.8381 112.085 19.1634C112.603 18.6449 113.189 18.2295 113.843 17.917L113.853 25.5765L119.861 25.5765L119.872 17.917C120.526 18.2295 121.111 18.6449 121.63 19.1634C122.29 19.8239 122.784 20.566 123.111 21.3899C123.437 22.2137 123.601 23.0588 123.601 23.9253C123.601 24.7917 123.437 25.6369 123.111 26.4607C122.784 27.2845 122.29 28.0338 121.63 28.7085C121.381 28.957 121.119 29.1772 120.842 29.369C120.565 29.5607 120.281 29.7454 119.989 29.9229L119.979 48.1502C119.979 48.5621 119.901 48.9598 119.744 49.3433C119.588 49.7268 119.361 50.0677 119.063 50.366C118.764 50.6643 118.423 50.8916 118.04 51.0478C117.656 51.2041 117.262 51.2786 116.857 51.2715C116.453 51.2644 116.062 51.1863 115.686 51.0372C115.309 50.888 114.965 50.6643 114.652 50.366C114.354 50.0677 114.127 49.7268 113.97 49.3433C113.814 48.9598 113.736 48.5621 113.736 48.1502L113.725 29.9229C113.434 29.7454 113.15 29.5607 112.873 29.369C112.596 29.1772 112.333 28.957 112.085 28.7085Z" fill="#81A4DC"/>
</g>
<path d="M133.543 40.9706C130.186 44.327 125.91 46.6128 121.254 47.5388C116.599 48.4649 111.773 47.9896 107.388 46.1731C103.002 44.3566 99.254 41.2805 96.6169 37.3337C93.9797 33.3869 92.5721 28.7467 92.5721 24C92.5721 19.2532 93.9797 14.6131 96.6169 10.6663C99.254 6.71953 103.002 3.64339 107.388 1.82689C111.773 0.0103867 116.599 -0.464892 121.254 0.461155C125.91 1.3872 130.186 3.67298 133.543 7.02944L126.245 14.3268C124.332 12.4136 121.895 11.1107 119.241 10.5829C116.587 10.055 113.837 10.3259 111.337 11.3613C108.837 12.3967 106.701 14.1501 105.198 16.3998C103.694 18.6495 102.892 21.2943 102.892 24C102.892 26.7056 103.694 29.3505 105.198 31.6002C106.701 33.8499 108.837 35.6033 111.337 36.6387C113.837 37.6741 116.587 37.945 119.241 37.4171C121.895 36.8893 124.332 35.5864 126.245 33.6732L133.543 40.9706Z" fill="#81A4DC"/>
<path d="M116.573 42.6169C126.853 42.6169 135.19 34.3347 135.19 24.1122C135.19 13.8898 126.853 5.60755 116.573 5.60755C106.294 5.60755 97.9566 13.8898 97.9566 24.1122C97.9566 34.3347 106.294 42.6169 116.573 42.6169Z" stroke="#FDFDFD" stroke-width="0.897197"/>
<mask id="path-6-outside-2_2574_182" maskUnits="userSpaceOnUse" x="136.107" y="12.5" width="62" height="25" fill="black">
<rect fill="white" x="136.107" y="12.5" width="62" height="25"/>
<path d="M136.451 36.5L144.327 13.2144H150.766L158.642 36.5H153.36L151.797 31.7491H143.265L141.702 36.5H136.451ZM144.609 27.5296H150.453L146.89 16.5275H148.203L144.609 27.5296ZM161.062 36.5V13.2144H169.97C171.575 13.2144 172.992 13.4957 174.221 14.0583C175.471 14.6209 176.451 15.4544 177.159 16.5588C177.868 17.6632 178.222 19.028 178.222 20.6533C178.222 22.2369 177.857 23.5913 177.128 24.7166C176.399 25.8209 175.419 26.6544 174.19 27.217L179.503 36.5H174.065L168.314 26.2168L171.439 28.0609H165.907V36.5H161.062ZM165.907 23.8414H170.002C170.689 23.8414 171.283 23.706 171.783 23.4351C172.283 23.1642 172.669 22.7891 172.94 22.3099C173.231 21.8306 173.377 21.2784 173.377 20.6533C173.377 20.0073 173.231 19.4447 172.94 18.9655C172.669 18.4862 172.283 18.1112 171.783 17.8403C171.283 17.5694 170.689 17.434 170.002 17.434H165.907V23.8414ZM181.91 36.5V13.2144H197.569V17.434H186.754V22.7162H196.944V26.9357H186.754V32.2805H197.569V36.5H181.91Z"/>
</mask>
<path d="M136.451 36.5L144.327 13.2144H150.766L158.642 36.5H153.36L151.797 31.7491H143.265L141.702 36.5H136.451ZM144.609 27.5296H150.453L146.89 16.5275H148.203L144.609 27.5296ZM161.062 36.5V13.2144H169.97C171.575 13.2144 172.992 13.4957 174.221 14.0583C175.471 14.6209 176.451 15.4544 177.159 16.5588C177.868 17.6632 178.222 19.028 178.222 20.6533C178.222 22.2369 177.857 23.5913 177.128 24.7166C176.399 25.8209 175.419 26.6544 174.19 27.217L179.503 36.5H174.065L168.314 26.2168L171.439 28.0609H165.907V36.5H161.062ZM165.907 23.8414H170.002C170.689 23.8414 171.283 23.706 171.783 23.4351C172.283 23.1642 172.669 22.7891 172.94 22.3099C173.231 21.8306 173.377 21.2784 173.377 20.6533C173.377 20.0073 173.231 19.4447 172.94 18.9655C172.669 18.4862 172.283 18.1112 171.783 17.8403C171.283 17.5694 170.689 17.434 170.002 17.434H165.907V23.8414ZM181.91 36.5V13.2144H197.569V17.434H186.754V22.7162H196.944V26.9357H186.754V32.2805H197.569V36.5H181.91Z" fill="#81A4DC"/>
<path d="M136.451 36.5L136.239 36.4285L136.14 36.7233H136.451V36.5ZM144.327 13.2144V12.9912H144.167L144.116 13.1429L144.327 13.2144ZM150.766 13.2144L150.978 13.1429L150.926 12.9912H150.766V13.2144ZM158.642 36.5V36.7233H158.954L158.854 36.4285L158.642 36.5ZM153.36 36.5L153.148 36.5698L153.199 36.7233H153.36V36.5ZM151.797 31.7491L152.01 31.6794L151.959 31.5259H151.797V31.7491ZM143.265 31.7491V31.5259H143.103L143.053 31.6794L143.265 31.7491ZM141.702 36.5V36.7233H141.863L141.914 36.5698L141.702 36.5ZM144.609 27.5296L144.396 27.4602L144.301 27.7528H144.609V27.5296ZM150.453 27.5296V27.7528H150.76L150.666 27.4608L150.453 27.5296ZM146.89 16.5275V16.3043H146.583L146.678 16.5963L146.89 16.5275ZM148.203 16.5275L148.415 16.5969L148.511 16.3043H148.203V16.5275ZM136.662 36.5715L144.539 13.2859L144.116 13.1429L136.239 36.4285L136.662 36.5715ZM144.327 13.4377H150.766V12.9912H144.327V13.4377ZM150.555 13.2859L158.431 36.5715L158.854 36.4285L150.978 13.1429L150.555 13.2859ZM158.642 36.2767H153.36V36.7233H158.642V36.2767ZM153.572 36.4302L152.01 31.6794L151.585 31.8189L153.148 36.5698L153.572 36.4302ZM151.797 31.5259H143.265V31.9724H151.797V31.5259ZM143.053 31.6794L141.49 36.4302L141.914 36.5698L143.477 31.8189L143.053 31.6794ZM141.702 36.2767H136.451V36.7233H141.702V36.2767ZM144.609 27.7528H150.453V27.3063H144.609V27.7528ZM150.666 27.4608L147.103 16.4587L146.678 16.5963L150.241 27.5984L150.666 27.4608ZM146.89 16.7508H148.203V16.3043H146.89V16.7508ZM147.991 16.4582L144.396 27.4602L144.821 27.5989L148.415 16.5969L147.991 16.4582ZM161.062 36.5H160.839V36.7233H161.062V36.5ZM161.062 13.2144V12.9912H160.839V13.2144H161.062ZM174.221 14.0583L174.128 14.2613L174.129 14.2619L174.221 14.0583ZM177.159 16.5588L176.971 16.6793L176.971 16.6793L177.159 16.5588ZM177.128 24.7166L177.314 24.8396L177.315 24.838L177.128 24.7166ZM174.19 27.217L174.097 27.014L173.875 27.1157L173.996 27.3279L174.19 27.217ZM179.503 36.5V36.7233H179.888L179.697 36.3891L179.503 36.5ZM174.065 36.5L173.87 36.609L173.934 36.7233H174.065V36.5ZM168.314 26.2168L168.427 26.0246L167.716 25.6047L168.119 26.3258L168.314 26.2168ZM171.439 28.0609V28.2842H172.257L171.553 27.8686L171.439 28.0609ZM165.907 28.0609V27.8377H165.684V28.0609H165.907ZM165.907 36.5V36.7233H166.13V36.5H165.907ZM165.907 23.8414H165.684V24.0646H165.907V23.8414ZM171.783 23.4351L171.889 23.6314L171.889 23.6314L171.783 23.4351ZM172.94 22.3099L172.749 22.1937L172.745 22.2L172.94 22.3099ZM172.94 18.9655L172.745 19.0754L172.749 19.0816L172.94 18.9655ZM171.783 17.8403L171.677 18.0366L171.677 18.0366L171.783 17.8403ZM165.907 17.434V17.2107H165.684V17.434H165.907ZM161.286 36.5V13.2144H160.839V36.5H161.286ZM161.062 13.4377H169.97V12.9912H161.062V13.4377ZM169.97 13.4377C171.549 13.4377 172.933 13.7143 174.128 14.2613L174.314 13.8553C173.05 13.2771 171.601 12.9912 169.97 12.9912V13.4377ZM174.129 14.2619C175.342 14.8076 176.287 15.6131 176.971 16.6793L177.347 16.4382C176.614 15.2958 175.601 14.4343 174.313 13.8547L174.129 14.2619ZM176.971 16.6793C177.652 17.74 177.999 19.0605 177.999 20.6533H178.445C178.445 18.9955 178.084 17.5863 177.347 16.4382L176.971 16.6793ZM177.999 20.6533C177.999 22.2018 177.642 23.5122 176.941 24.5951L177.315 24.838C178.072 23.6705 178.445 22.2721 178.445 20.6533H177.999ZM176.942 24.5935C176.236 25.6622 175.289 26.4684 174.097 27.014L174.283 27.42C175.549 26.8404 176.561 25.9796 177.314 24.8396L176.942 24.5935ZM173.996 27.3279L179.31 36.6109L179.697 36.3891L174.384 27.1061L173.996 27.3279ZM179.503 36.2767H174.065V36.7233H179.503V36.2767ZM174.26 36.391L168.509 26.1079L168.119 26.3258L173.87 36.609L174.26 36.391ZM168.2 26.4091L171.326 28.2532L171.553 27.8686L168.427 26.0246L168.2 26.4091ZM171.439 27.8377H165.907V28.2842H171.439V27.8377ZM165.684 28.0609V36.5H166.13V28.0609H165.684ZM165.907 36.2767H161.062V36.7233H165.907V36.2767ZM165.907 24.0646H170.002V23.6181H165.907V24.0646ZM170.002 24.0646C170.719 24.0646 171.351 23.9233 171.889 23.6314L171.677 23.2388C171.216 23.4886 170.66 23.6181 170.002 23.6181V24.0646ZM171.889 23.6314C172.425 23.3412 172.842 22.9367 173.134 22.4197L172.745 22.2C172.496 22.6415 172.141 22.9872 171.677 23.2388L171.889 23.6314ZM173.13 22.4259C173.446 21.9078 173.6 21.3146 173.6 20.6533H173.154C173.154 21.2423 173.017 21.7534 172.749 22.1938L173.13 22.4259ZM173.6 20.6533C173.6 19.9727 173.446 19.3687 173.13 18.8494L172.749 19.0816C173.016 19.5208 173.154 20.042 173.154 20.6533H173.6ZM173.134 18.8556C172.842 18.3386 172.425 17.9341 171.889 17.644L171.677 18.0366C172.141 18.2882 172.496 18.6338 172.745 19.0753L173.134 18.8556ZM171.889 17.644C171.351 17.3521 170.719 17.2107 170.002 17.2107V17.6572C170.66 17.6572 171.216 17.7867 171.677 18.0366L171.889 17.644ZM170.002 17.2107H165.907V17.6572H170.002V17.2107ZM165.684 17.434V23.8414H166.13V17.434H165.684ZM181.91 36.5H181.687V36.7233H181.91V36.5ZM181.91 13.2144V12.9912H181.687V13.2144H181.91ZM197.569 13.2144H197.792V12.9912H197.569V13.2144ZM197.569 17.434V17.6572H197.792V17.434H197.569ZM186.754 17.434V17.2107H186.531V17.434H186.754ZM186.754 22.7162H186.531V22.9394H186.754V22.7162ZM196.944 22.7162H197.167V22.4929H196.944V22.7162ZM196.944 26.9357V27.159H197.167V26.9357H196.944ZM186.754 26.9357V26.7125H186.531V26.9357H186.754ZM186.754 32.2805H186.531V32.5037H186.754V32.2805ZM197.569 32.2805H197.792V32.0572H197.569V32.2805ZM197.569 36.5V36.7233H197.792V36.5H197.569ZM182.133 36.5V13.2144H181.687V36.5H182.133ZM181.91 13.4377H197.569V12.9912H181.91V13.4377ZM197.346 13.2144V17.434H197.792V13.2144H197.346ZM197.569 17.2107H186.754V17.6572H197.569V17.2107ZM186.531 17.434V22.7162H186.978V17.434H186.531ZM186.754 22.9394H196.944V22.4929H186.754V22.9394ZM196.721 22.7162V26.9357H197.167V22.7162H196.721ZM196.944 26.7125H186.754V27.159H196.944V26.7125ZM186.531 26.9357V32.2805H186.978V26.9357H186.531ZM186.754 32.5037H197.569V32.0572H186.754V32.5037ZM197.346 32.2805V36.5H197.792V32.2805H197.346ZM197.569 36.2767H181.91V36.7233H197.569V36.2767Z" fill="#81A4DC" mask="url(#path-6-outside-2_2574_182)"/>
<defs>
<clipPath id="clip0_2574_182">
<rect width="43.7383" height="29.3832" fill="white" transform="translate(94.8163 11.6637)"/>
</clipPath>
</defs>
</svg>
