<svg width="257" height="62" viewBox="0 0 257 62" fill="none" xmlns="http://www.w3.org/2000/svg">
<mask id="path-1-outside-1_2190_445" maskUnits="userSpaceOnUse" x="2.15356" y="16.5" width="112" height="32" fill="black">
<rect fill="white" x="2.15356" y="16.5" width="112" height="32"/>
<path d="M2.81812 47.5V17.4228H15.5353C17.6078 17.4228 19.3841 17.7727 20.8644 18.4725C22.3448 19.1722 23.4752 20.1815 24.2557 21.5004C25.0362 22.7923 25.4265 24.3668 25.4265 26.2239C25.4265 27.5427 25.0631 28.8077 24.3364 30.0189C23.6098 31.2031 22.412 32.199 20.7433 33.0064V29.9381C22.3313 30.5572 23.5559 31.2973 24.4172 32.1586C25.2785 33.0199 25.8706 33.9619 26.1936 34.9847C26.5165 35.9805 26.678 37.0302 26.678 38.1337C26.678 41.0943 25.6956 43.3955 23.7309 45.0373C21.7661 46.6791 19.0342 47.5 15.5353 47.5H2.81812ZM9.0758 42.0498H16.262C17.527 42.0498 18.5363 41.6864 19.2899 40.9597C20.0436 40.233 20.4204 39.291 20.4204 38.1337C20.4204 36.9494 20.0436 35.994 19.2899 35.2673C18.5363 34.5406 17.527 34.1772 16.262 34.1772H9.0758V42.0498ZM9.0758 28.727H15.9794C16.9484 28.727 17.7154 28.4578 18.2806 27.9195C18.8728 27.3543 19.1688 26.6142 19.1688 25.6991C19.1688 24.784 18.8728 24.0573 18.2806 23.519C17.7154 22.9538 16.9484 22.6712 15.9794 22.6712H9.0758V28.727ZM30.6922 47.5V17.4228H50.9186V22.873H36.9499V29.6959H50.1112V35.1461H36.9499V42.0498H50.9186V47.5H30.6922ZM54.466 47.5V17.4228H59.2703L75.4191 38.6989L72.8353 39.3045V17.4228H79.093V47.5H74.2483L58.3821 26.0624L60.7237 25.4568V47.5H54.466ZM98.8829 47.9845C96.7297 47.9845 94.7246 47.5942 92.8674 46.8137C91.0103 46.0331 89.382 44.9431 87.9824 43.5435C86.5829 42.144 85.4928 40.5022 84.7123 38.6181C83.9318 36.7341 83.5415 34.6751 83.5415 32.4412C83.5415 30.2073 83.9183 28.1483 84.6719 26.2643C85.4255 24.3533 86.4887 22.7115 87.8613 21.3389C89.234 19.9393 90.8354 18.8627 92.6656 18.1091C94.5227 17.3286 96.5413 16.9383 98.7214 16.9383C100.901 16.9383 102.853 17.3017 104.575 18.0284C106.325 18.7551 107.805 19.724 109.016 20.9352C110.227 22.1463 111.089 23.4921 111.6 24.9724L106.069 27.6369C105.558 26.1835 104.656 24.9858 103.364 24.0438C102.099 23.0749 100.552 22.5904 98.7214 22.5904C96.945 22.5904 95.384 23.0076 94.0382 23.842C92.6925 24.6763 91.6428 25.8336 90.8892 27.314C90.1625 28.7673 89.7992 30.4764 89.7992 32.4412C89.7992 34.406 90.1894 36.1285 90.97 37.6088C91.7505 39.0891 92.8136 40.2465 94.1594 41.0808C95.532 41.9152 97.1065 42.3324 98.8829 42.3324C100.256 42.3324 101.534 42.0767 102.718 41.5653C103.929 41.027 104.898 40.2599 105.625 39.2641C106.379 38.2682 106.755 37.0705 106.755 35.671V33.1679L109.622 35.5902H98.7214V30.3419H113.013V33.5313C113.013 35.9805 112.609 38.1202 111.802 39.9504C110.995 41.7537 109.904 43.2609 108.532 44.4721C107.186 45.6563 105.665 46.5445 103.97 47.1367C102.301 47.7019 100.605 47.9845 98.8829 47.9845Z"/>
</mask>
<path d="M2.81812 47.5V17.4228H15.5353C17.6078 17.4228 19.3841 17.7727 20.8644 18.4725C22.3448 19.1722 23.4752 20.1815 24.2557 21.5004C25.0362 22.7923 25.4265 24.3668 25.4265 26.2239C25.4265 27.5427 25.0631 28.8077 24.3364 30.0189C23.6098 31.2031 22.412 32.199 20.7433 33.0064V29.9381C22.3313 30.5572 23.5559 31.2973 24.4172 32.1586C25.2785 33.0199 25.8706 33.9619 26.1936 34.9847C26.5165 35.9805 26.678 37.0302 26.678 38.1337C26.678 41.0943 25.6956 43.3955 23.7309 45.0373C21.7661 46.6791 19.0342 47.5 15.5353 47.5H2.81812ZM9.0758 42.0498H16.262C17.527 42.0498 18.5363 41.6864 19.2899 40.9597C20.0436 40.233 20.4204 39.291 20.4204 38.1337C20.4204 36.9494 20.0436 35.994 19.2899 35.2673C18.5363 34.5406 17.527 34.1772 16.262 34.1772H9.0758V42.0498ZM9.0758 28.727H15.9794C16.9484 28.727 17.7154 28.4578 18.2806 27.9195C18.8728 27.3543 19.1688 26.6142 19.1688 25.6991C19.1688 24.784 18.8728 24.0573 18.2806 23.519C17.7154 22.9538 16.9484 22.6712 15.9794 22.6712H9.0758V28.727ZM30.6922 47.5V17.4228H50.9186V22.873H36.9499V29.6959H50.1112V35.1461H36.9499V42.0498H50.9186V47.5H30.6922ZM54.466 47.5V17.4228H59.2703L75.4191 38.6989L72.8353 39.3045V17.4228H79.093V47.5H74.2483L58.3821 26.0624L60.7237 25.4568V47.5H54.466ZM98.8829 47.9845C96.7297 47.9845 94.7246 47.5942 92.8674 46.8137C91.0103 46.0331 89.382 44.9431 87.9824 43.5435C86.5829 42.144 85.4928 40.5022 84.7123 38.6181C83.9318 36.7341 83.5415 34.6751 83.5415 32.4412C83.5415 30.2073 83.9183 28.1483 84.6719 26.2643C85.4255 24.3533 86.4887 22.7115 87.8613 21.3389C89.234 19.9393 90.8354 18.8627 92.6656 18.1091C94.5227 17.3286 96.5413 16.9383 98.7214 16.9383C100.901 16.9383 102.853 17.3017 104.575 18.0284C106.325 18.7551 107.805 19.724 109.016 20.9352C110.227 22.1463 111.089 23.4921 111.6 24.9724L106.069 27.6369C105.558 26.1835 104.656 24.9858 103.364 24.0438C102.099 23.0749 100.552 22.5904 98.7214 22.5904C96.945 22.5904 95.384 23.0076 94.0382 23.842C92.6925 24.6763 91.6428 25.8336 90.8892 27.314C90.1625 28.7673 89.7992 30.4764 89.7992 32.4412C89.7992 34.406 90.1894 36.1285 90.97 37.6088C91.7505 39.0891 92.8136 40.2465 94.1594 41.0808C95.532 41.9152 97.1065 42.3324 98.8829 42.3324C100.256 42.3324 101.534 42.0767 102.718 41.5653C103.929 41.027 104.898 40.2599 105.625 39.2641C106.379 38.2682 106.755 37.0705 106.755 35.671V33.1679L109.622 35.5902H98.7214V30.3419H113.013V33.5313C113.013 35.9805 112.609 38.1202 111.802 39.9504C110.995 41.7537 109.904 43.2609 108.532 44.4721C107.186 45.6563 105.665 46.5445 103.97 47.1367C102.301 47.7019 100.605 47.9845 98.8829 47.9845Z" fill="#FDFDFD"/>
<path d="M2.81812 47.5H2.52975V47.7884H2.81812V47.5ZM2.81812 17.4228V17.1344H2.52975V17.4228H2.81812ZM20.8644 18.4725L20.7412 18.7332H20.7412L20.8644 18.4725ZM24.2557 21.5004L24.0075 21.6472L24.0089 21.6495L24.2557 21.5004ZM24.3365 30.0189L24.5822 30.1697L24.5837 30.1672L24.3365 30.0189ZM20.7433 33.0064H20.455V33.4663L20.8689 33.266L20.7433 33.0064ZM20.7433 29.9381L20.8481 29.6695L20.455 29.5162V29.9381H20.7433ZM26.1936 34.9847L25.9186 35.0715L25.9193 35.0736L26.1936 34.9847ZM23.7309 45.0373L23.9158 45.2586L23.7309 45.0373ZM9.0758 42.0498H8.78743V42.3381H9.0758V42.0498ZM19.2899 40.9597L19.4901 41.1673L19.2899 40.9597ZM19.2899 35.2673L19.0898 35.4748L19.2899 35.2673ZM9.0758 34.1772V33.8888H8.78743V34.1772H9.0758ZM9.0758 28.727H8.78743V29.0153H9.0758V28.727ZM18.2806 27.9195L18.4795 28.1284L18.4797 28.1281L18.2806 27.9195ZM18.2806 23.519L18.0765 23.7231L18.0867 23.7324L18.2806 23.519ZM9.0758 22.6712V22.3828H8.78743V22.6712H9.0758ZM3.10649 47.5V17.4228H2.52975V47.5H3.10649ZM2.81812 17.7112H15.5353V17.1344H2.81812V17.7112ZM15.5353 17.7112C17.5761 17.7112 19.3083 18.0558 20.7412 18.7332L20.9877 18.2118C19.46 17.4896 17.6394 17.1344 15.5353 17.1344V17.7112ZM20.7412 18.7332C22.1732 19.4101 23.2584 20.3814 24.0075 21.6472L24.5039 21.3535C23.692 19.9817 22.5163 18.9344 20.9877 18.2118L20.7412 18.7332ZM24.0089 21.6495C24.7566 22.8871 25.1381 24.4073 25.1381 26.2239H25.7149C25.7149 24.3263 25.3159 22.6975 24.5025 21.3512L24.0089 21.6495ZM25.1381 26.2239C25.1381 27.4867 24.791 28.7009 24.0892 29.8705L24.5837 30.1672C25.3353 28.9146 25.7149 27.5987 25.7149 26.2239H25.1381ZM24.0907 29.8681C23.401 30.992 22.253 31.9556 20.6177 32.7468L20.8689 33.266C22.5711 32.4424 23.8185 31.4142 24.5822 30.1697L24.0907 29.8681ZM21.0317 33.0064V29.9381H20.455V33.0064H21.0317ZM20.6386 30.2068C22.2032 30.8168 23.3891 31.5384 24.2133 32.3625L24.6211 31.9547C23.7227 31.0563 22.4594 30.2976 20.8481 29.6695L20.6386 30.2068ZM24.2133 32.3625C25.0463 33.1955 25.6113 34.0986 25.9186 35.0715L26.4686 34.8978C26.1298 33.8252 25.5106 32.8442 24.6211 31.9547L24.2133 32.3625ZM25.9193 35.0736C26.2324 36.0392 26.3897 37.0587 26.3897 38.1337H26.9664C26.9664 37.0016 26.8007 35.9218 26.4679 34.8957L25.9193 35.0736ZM26.3897 38.1337C26.3897 41.0237 25.4345 43.2379 23.546 44.816L23.9158 45.2586C25.9568 43.5531 26.9664 41.1648 26.9664 38.1337H26.3897ZM23.546 44.816C21.6493 46.4009 18.9914 47.2116 15.5353 47.2116V47.7884C19.0771 47.7884 21.8829 46.9573 23.9158 45.2586L23.546 44.816ZM15.5353 47.2116H2.81812V47.7884H15.5353V47.2116ZM9.0758 42.3381H16.262V41.7614H9.0758V42.3381ZM16.262 42.3381C17.5852 42.3381 18.6719 41.9563 19.4901 41.1673L19.0898 40.7521C18.4007 41.4166 17.4689 41.7614 16.262 41.7614V42.3381ZM19.4901 41.1673C20.3063 40.3802 20.7087 39.3602 20.7087 38.1337H20.132C20.132 39.2218 19.7808 40.0858 19.0898 40.7521L19.4901 41.1673ZM20.7087 38.1337C20.7087 36.8824 20.3077 35.8481 19.4901 35.0597L19.0898 35.4748C19.7794 36.1398 20.132 37.0165 20.132 38.1337H20.7087ZM19.4901 35.0597C18.6719 34.2707 17.5852 33.8888 16.262 33.8888V34.4656C17.4689 34.4656 18.4007 34.8104 19.0898 35.4748L19.4901 35.0597ZM16.262 33.8888H9.0758V34.4656H16.262V33.8888ZM8.78743 34.1772V42.0498H9.36417V34.1772H8.78743ZM9.0758 29.0153H15.9794V28.4386H9.0758V29.0153ZM15.9794 29.0153C17.0036 29.0153 17.8485 28.7293 18.4795 28.1284L18.0818 27.7107C17.5824 28.1863 16.8931 28.4386 15.9794 28.4386V29.0153ZM18.4797 28.1281C19.1359 27.5018 19.4572 26.6827 19.4572 25.6991H18.8804C18.8804 26.5456 18.6096 27.2068 18.0815 27.7109L18.4797 28.1281ZM19.4572 25.6991C19.4572 24.7156 19.1358 23.9066 18.4746 23.3056L18.0867 23.7324C18.6098 24.2079 18.8804 24.8524 18.8804 25.6991H19.4572ZM18.4845 23.3151C17.8541 22.6847 17.0075 22.3828 15.9794 22.3828V22.9595C16.8892 22.9595 17.5767 23.2229 18.0767 23.7229L18.4845 23.3151ZM15.9794 22.3828H9.0758V22.9595H15.9794V22.3828ZM8.78743 22.6712V28.727H9.36417V22.6712H8.78743ZM30.6922 47.5H30.4038V47.7884H30.6922V47.5ZM30.6922 17.4228V17.1344H30.4038V17.4228H30.6922ZM50.9186 17.4228H51.207V17.1344H50.9186V17.4228ZM50.9186 22.873V23.1614H51.207V22.873H50.9186ZM36.9499 22.873V22.5847H36.6615V22.873H36.9499ZM36.9499 29.6959H36.6615V29.9843H36.9499V29.6959ZM50.1112 29.6959H50.3996V29.4075H50.1112V29.6959ZM50.1112 35.1461V35.4345H50.3996V35.1461H50.1112ZM36.9499 35.1461V34.8578H36.6615V35.1461H36.9499ZM36.9499 42.0498H36.6615V42.3381H36.9499V42.0498ZM50.9186 42.0498H51.207V41.7614H50.9186V42.0498ZM50.9186 47.5V47.7884H51.207V47.5H50.9186ZM30.9806 47.5V17.4228H30.4038V47.5H30.9806ZM30.6922 17.7112H50.9186V17.1344H30.6922V17.7112ZM50.6303 17.4228V22.873H51.207V17.4228H50.6303ZM50.9186 22.5847H36.9499V23.1614H50.9186V22.5847ZM36.6615 22.873V29.6959H37.2383V22.873H36.6615ZM36.9499 29.9843H50.1112V29.4075H36.9499V29.9843ZM49.8228 29.6959V35.1461H50.3996V29.6959H49.8228ZM50.1112 34.8578H36.9499V35.4345H50.1112V34.8578ZM36.6615 35.1461V42.0498H37.2383V35.1461H36.6615ZM36.9499 42.3381H50.9186V41.7614H36.9499V42.3381ZM50.6303 42.0498V47.5H51.207V42.0498H50.6303ZM50.9186 47.2116H30.6922V47.7884H50.9186V47.2116ZM54.466 47.5H54.1776V47.7884H54.466V47.5ZM54.466 17.4228V17.1344H54.1776V17.4228H54.466ZM59.2703 17.4228L59.5 17.2484L59.4134 17.1344H59.2703V17.4228ZM75.4191 38.6989L75.4849 38.9796L75.9174 38.8783L75.6488 38.5245L75.4191 38.6989ZM72.8353 39.3045H72.547V39.6682L72.9011 39.5852L72.8353 39.3045ZM72.8353 17.4228V17.1344H72.547V17.4228H72.8353ZM79.093 17.4228H79.3814V17.1344H79.093V17.4228ZM79.093 47.5V47.7884H79.3814V47.5H79.093ZM74.2483 47.5L74.0166 47.6716L74.103 47.7884H74.2483V47.5ZM58.3821 26.0624L58.3099 25.7832L57.896 25.8903L58.1503 26.234L58.3821 26.0624ZM60.7237 25.4568H61.0121V25.0844L60.6515 25.1777L60.7237 25.4568ZM60.7237 47.5V47.7884H61.0121V47.5H60.7237ZM54.7544 47.5V17.4228H54.1776V47.5H54.7544ZM54.466 17.7112H59.2703V17.1344H54.466V17.7112ZM59.0406 17.5971L75.1894 38.8732L75.6488 38.5245L59.5 17.2484L59.0406 17.5971ZM75.3533 38.4181L72.7695 39.0237L72.9011 39.5852L75.4849 38.9796L75.3533 38.4181ZM73.1237 39.3045V17.4228H72.547V39.3045H73.1237ZM72.8353 17.7112H79.093V17.1344H72.8353V17.7112ZM78.8046 17.4228V47.5H79.3814V17.4228H78.8046ZM79.093 47.2116H74.2483V47.7884H79.093V47.2116ZM74.4801 47.3284L58.6139 25.8909L58.1503 26.234L74.0166 47.6716L74.4801 47.3284ZM58.4543 26.3416L60.7959 25.736L60.6515 25.1777L58.3099 25.7832L58.4543 26.3416ZM60.4353 25.4568V47.5H61.0121V25.4568H60.4353ZM60.7237 47.2116H54.466V47.7884H60.7237V47.2116ZM92.8674 46.8137L92.7557 47.0795L92.8674 46.8137ZM87.9824 43.5435L88.1863 43.3396L87.9824 43.5435ZM84.7123 38.6181L84.9787 38.5078L84.7123 38.6181ZM84.6719 26.2643L84.9397 26.3714L84.9402 26.3701L84.6719 26.2643ZM87.8613 21.3389L88.0652 21.5428L88.0672 21.5408L87.8613 21.3389ZM92.6656 18.1091L92.7754 18.3758L92.7773 18.375L92.6656 18.1091ZM104.575 18.0284L104.463 18.2941L104.465 18.2947L104.575 18.0284ZM111.6 24.9724L111.725 25.2322L111.956 25.1208L111.873 24.8782L111.6 24.9724ZM106.069 27.6369L105.797 27.7326L105.904 28.0366L106.194 27.8967L106.069 27.6369ZM103.364 24.0438L103.189 24.2728L103.194 24.2768L103.364 24.0438ZM94.0382 23.842L94.1902 24.087L94.0382 23.842ZM90.8892 27.314L90.6322 27.1831L90.6313 27.185L90.8892 27.314ZM90.97 37.6088L91.225 37.4743L90.97 37.6088ZM94.1594 41.0808L94.0074 41.3259L94.0096 41.3273L94.1594 41.0808ZM102.718 41.5653L102.833 41.8301L102.835 41.8288L102.718 41.5653ZM105.625 39.2641L105.395 39.09L105.392 39.0941L105.625 39.2641ZM106.755 33.1679L106.942 32.9476L106.467 32.5467V33.1679H106.755ZM109.622 35.5902V35.8786H110.41L109.808 35.37L109.622 35.5902ZM98.7214 35.5902H98.433V35.8786H98.7214V35.5902ZM98.7214 30.3419V30.0535H98.433V30.3419H98.7214ZM113.013 30.3419H113.301V30.0535H113.013V30.3419ZM111.802 39.9504L112.065 40.0683L112.066 40.0668L111.802 39.9504ZM108.532 44.4721L108.722 44.6886L108.723 44.6883L108.532 44.4721ZM103.97 47.1367L104.062 47.4098L104.065 47.4089L103.97 47.1367ZM98.8829 47.6961C96.7654 47.6961 94.7985 47.3125 92.9792 46.5478L92.7557 47.0795C94.6506 47.8759 96.694 48.2728 98.8829 48.2728V47.6961ZM92.9792 46.5478C91.1559 45.7815 89.559 44.7123 88.1863 43.3396L87.7785 43.7474C89.205 45.1739 90.8648 46.2848 92.7557 47.0795L92.9792 46.5478ZM88.1863 43.3396C86.8144 41.9677 85.7452 40.3579 84.9787 38.5078L84.4459 38.7285C85.2404 40.6464 86.3514 42.3203 87.7785 43.7474L88.1863 43.3396ZM84.9787 38.5078C84.214 36.6619 83.8299 34.6409 83.8299 32.4412H83.2531C83.2531 34.7094 83.6495 36.8063 84.4459 38.7285L84.9787 38.5078ZM83.8299 32.4412C83.8299 30.2403 84.201 28.2181 84.9397 26.3714L84.4042 26.1572C83.6356 28.0786 83.2531 30.1743 83.2531 32.4412H83.8299ZM84.9402 26.3701C85.6801 24.4937 86.7221 22.8859 88.0652 21.5428L87.6574 21.135C86.2552 22.5372 85.1709 24.2129 84.4036 26.1585L84.9402 26.3701ZM88.0672 21.5408C89.4122 20.1694 90.9809 19.1147 92.7754 18.3758L92.5558 17.8425C90.6899 18.6108 89.0557 19.7093 87.6554 21.137L88.0672 21.5408ZM92.7773 18.375C94.5962 17.6105 96.5765 17.2267 98.7214 17.2267V16.65C96.5061 16.65 94.4492 17.0467 92.5539 17.8433L92.7773 18.375ZM98.7214 17.2267C100.869 17.2267 102.782 17.5846 104.463 18.2941L104.687 17.7627C102.924 17.0187 100.934 16.65 98.7214 16.65V17.2267ZM104.465 18.2947C106.183 19.0084 107.631 19.9573 108.812 21.1391L109.22 20.7313C107.98 19.4907 106.467 18.5017 104.686 17.7621L104.465 18.2947ZM108.812 21.1391C109.996 22.3223 110.832 23.6313 111.328 25.0665L111.873 24.8782C111.346 23.3528 110.459 21.9704 109.22 20.7313L108.812 21.1391ZM111.475 24.7126L105.944 27.3771L106.194 27.8967L111.725 25.2322L111.475 24.7126ZM106.341 27.5412C105.81 26.0306 104.871 24.7858 103.534 23.8108L103.194 24.2768C104.441 25.1858 105.306 26.3365 105.797 27.7326L106.341 27.5412ZM103.54 23.8149C102.217 22.8018 100.605 22.302 98.7214 22.302V22.8788C100.498 22.8788 101.981 23.3479 103.189 24.2727L103.54 23.8149ZM98.7214 22.302C96.8981 22.302 95.2831 22.7309 93.8863 23.5969L94.1902 24.087C95.4849 23.2843 96.992 22.8788 98.7214 22.8788V22.302ZM93.8863 23.5969C92.4935 24.4604 91.4085 25.6583 90.6322 27.1831L91.1462 27.4448C91.8771 26.009 92.8915 24.8922 94.1902 24.087L93.8863 23.5969ZM90.6313 27.185C89.8808 28.6859 89.5108 30.4409 89.5108 32.4412H90.0875C90.0875 30.512 90.4442 28.8487 91.1471 27.4429L90.6313 27.185ZM89.5108 32.4412C89.5108 34.4447 89.909 36.2149 90.7149 37.7433L91.225 37.4743C90.4699 36.0422 90.0875 34.3673 90.0875 32.4412H89.5108ZM90.7149 37.7433C91.5179 39.2663 92.6156 40.463 94.0074 41.3259L94.3113 40.8357C93.0117 40.03 91.9831 38.912 91.225 37.4743L90.7149 37.7433ZM94.0096 41.3273C95.432 42.1919 97.0594 42.6207 98.8829 42.6207V42.044C97.1536 42.044 95.632 41.6385 94.3091 40.8344L94.0096 41.3273ZM98.8829 42.6207C100.292 42.6207 101.61 42.358 102.833 41.83L102.604 41.3006C101.458 41.7954 100.219 42.044 98.8829 42.044V42.6207ZM102.835 41.8288C104.089 41.2716 105.099 40.4738 105.858 39.4341L105.392 39.0941C104.697 40.0461 103.77 40.7824 102.601 41.3018L102.835 41.8288ZM105.855 39.4381C106.651 38.3862 107.044 37.1254 107.044 35.671H106.467C106.467 37.0157 106.106 38.1503 105.395 39.0901L105.855 39.4381ZM107.044 35.671V33.1679H106.467V35.671H107.044ZM106.569 33.3882L109.436 35.8105L109.808 35.37L106.942 32.9476L106.569 33.3882ZM109.622 35.3019H98.7214V35.8786H109.622V35.3019ZM99.0098 35.5902V30.3419H98.433V35.5902H99.0098ZM98.7214 30.6302H113.013V30.0535H98.7214V30.6302ZM112.725 30.3419V33.5313H113.301V30.3419H112.725ZM112.725 33.5313C112.725 35.9492 112.326 38.0477 111.538 39.834L112.066 40.0668C112.893 38.1927 113.301 36.0118 113.301 33.5313H112.725ZM111.539 39.8326C110.747 41.6013 109.68 43.0741 108.341 44.2559L108.723 44.6883C110.129 43.4478 111.242 41.9061 112.065 40.0683L111.539 39.8326ZM108.341 44.2556C107.024 45.4152 105.535 46.2845 103.875 46.8644L104.065 47.4089C105.796 46.8045 107.349 45.8974 108.722 44.6886L108.341 44.2556ZM103.877 46.8635C102.238 47.4189 100.573 47.6961 98.8829 47.6961V48.2728C100.638 48.2728 102.364 47.9849 104.062 47.4098L103.877 46.8635Z" fill="#FDFDFD" mask="url(#path-1-outside-1_2190_445)"/>
<g clip-path="url(#clip0_2190_445)">
<path d="M149.731 19.7163C149.08 19.8906 148.47 20.0695 147.901 20.2529C147.332 20.4364 146.777 20.6428 146.236 20.8721C145.695 21.1015 145.186 21.3904 144.709 21.739C144.232 22.0876 143.732 22.505 143.209 22.9912C142.484 23.7159 141.879 24.5048 141.393 25.3579C140.906 26.2111 140.539 27.1101 140.292 28.0549C140.044 28.9998 139.925 29.9538 139.934 30.917C139.943 31.8802 140.067 32.8297 140.305 33.7654C140.544 34.7011 140.906 35.5955 141.393 36.4486C141.879 37.3017 142.484 38.0998 143.209 38.8429C143.42 39.0538 143.64 39.2557 143.869 39.4483C144.099 39.6409 144.342 39.829 144.599 40.0125V62.1938C144.599 63.0744 144.764 63.9092 145.094 64.6981C145.424 65.487 145.901 66.1934 146.525 66.8172C147.158 67.4501 147.874 67.9272 148.672 68.2482C149.47 68.5693 150.286 68.7253 151.121 68.7161C151.956 68.7069 152.777 68.5464 153.584 68.2345C154.391 67.9226 155.111 67.4501 155.744 66.8172C156.359 66.2026 156.831 65.5008 157.162 64.7119C157.492 63.923 157.662 63.0836 157.671 62.1938L157.671 40.0125C157.918 39.8382 158.157 39.6547 158.386 39.4621C158.616 39.2694 158.84 39.063 159.061 38.8429C159.785 38.1182 160.391 37.3292 160.877 36.4761C161.363 35.623 161.73 34.724 161.978 33.7791C162.225 32.8343 162.345 31.8802 162.335 30.917C162.326 29.9538 162.202 29.0044 161.964 28.0687C161.725 27.133 161.363 26.2386 160.877 25.3855C160.391 24.5323 159.785 23.7342 159.061 22.9912C158.565 22.4958 158.074 22.0784 157.588 21.739C157.102 21.3996 156.584 21.1106 156.033 20.8721C155.483 20.6336 154.932 20.4226 154.382 20.2392C153.832 20.0557 153.217 19.8814 152.538 19.7163L152.538 30.5593L149.731 30.5593L149.731 19.7163ZM144.97 37.0816C144.117 36.2284 143.479 35.2698 143.058 34.2057C142.636 33.1416 142.425 32.0499 142.425 30.9308C142.425 29.8116 142.636 28.72 143.058 27.6559C143.479 26.5918 144.117 25.624 144.97 24.7525C145.64 24.0828 146.397 23.5462 147.241 23.1426L147.254 33.0361H155.015L155.029 23.1426C155.873 23.5462 156.63 24.0828 157.299 24.7525C158.152 25.6056 158.79 26.5642 159.212 27.6284C159.634 28.6925 159.845 29.7841 159.845 30.9033C159.845 32.0224 159.634 33.1141 159.212 34.1782C158.79 35.2423 158.152 36.2101 157.299 37.0816C156.978 37.4026 156.639 37.687 156.281 37.9347C155.923 38.1824 155.556 38.4209 155.18 38.6502L155.166 62.1938C155.166 62.7258 155.066 63.2395 154.864 63.7349C154.662 64.2303 154.368 64.6706 153.983 65.0559C153.598 65.4412 153.157 65.7347 152.662 65.9365C152.167 66.1383 151.658 66.2347 151.135 66.2255C150.612 66.2163 150.107 66.1154 149.621 65.9228C149.135 65.7301 148.69 65.4412 148.286 65.0559C147.901 64.6706 147.608 64.2303 147.406 63.7349C147.204 63.2395 147.103 62.7258 147.103 62.1938L147.089 38.6502C146.713 38.4209 146.346 38.1824 145.988 37.9347C145.631 37.687 145.291 37.4026 144.97 37.0816Z" fill="#FDFDFD"/>
</g>
<path d="M172.688 52.9203C168.352 57.2557 162.829 60.2082 156.815 61.4043C150.802 62.6005 144.569 61.9866 138.904 59.6403C133.24 57.2939 128.398 53.3206 124.992 48.2227C121.586 43.1247 119.768 37.1312 119.768 31C119.768 24.8688 121.586 18.8752 124.992 13.7773C128.398 8.67939 133.24 4.70605 138.904 2.35973C144.569 0.0134161 150.802 -0.600486 156.815 0.595658C162.829 1.7918 168.352 4.74427 172.688 9.0797L163.262 18.5054C160.791 16.0342 157.642 14.3513 154.215 13.6695C150.787 12.9877 147.234 13.3376 144.006 14.675C140.777 16.0124 138.017 18.2773 136.076 21.1831C134.134 24.0889 133.098 27.5052 133.098 31C133.098 34.4948 134.134 37.9111 136.076 40.8169C138.017 43.7227 140.777 45.9875 144.006 47.325C147.234 48.6624 150.787 49.0123 154.215 48.3305C157.642 47.6487 160.791 45.9658 163.262 43.4946L172.688 52.9203Z" fill="#FDFDFD"/>
<path d="M150.768 55.0468C164.045 55.0468 174.814 44.349 174.814 31.1449C174.814 17.9409 164.045 7.24307 150.768 7.24307C137.49 7.24307 126.721 17.9409 126.721 31.1449C126.721 44.349 137.49 55.0468 150.768 55.0468Z" stroke="#415D9E" stroke-width="1.15888"/>
<mask id="path-6-outside-2_2190_445" maskUnits="userSpaceOnUse" x="176" y="16.5" width="80" height="32" fill="black">
<rect fill="white" x="176" y="16.5" width="80" height="32"/>
<path d="M176.444 47.5L186.618 17.4228H194.935L205.109 47.5H198.286L196.267 41.3634H185.245L183.227 47.5H176.444ZM186.981 35.9132H194.531L189.929 21.7022H191.624L186.981 35.9132ZM208.234 47.5V17.4228H219.74C221.813 17.4228 223.643 17.7861 225.231 18.5128C226.846 19.2395 228.111 20.3161 229.026 21.7426C229.941 23.1691 230.398 24.932 230.398 27.0313C230.398 29.0769 229.927 30.8263 228.985 32.2797C228.043 33.7062 226.778 34.7828 225.19 35.5095L232.054 47.5H225.029L217.601 34.2176L221.638 36.5995H214.492V47.5H208.234ZM214.492 31.1493H219.781C220.669 31.1493 221.436 30.9744 222.082 30.6245C222.728 30.2746 223.226 29.7901 223.576 29.1711C223.952 28.552 224.141 27.8388 224.141 27.0313C224.141 26.197 223.952 25.4703 223.576 24.8513C223.226 24.2322 222.728 23.7477 222.082 23.3979C221.436 23.048 220.669 22.873 219.781 22.873H214.492V31.1493ZM235.162 47.5V17.4228H255.388V22.873H241.42V29.6959H254.581V35.1461H241.42V42.0498H255.388V47.5H235.162Z"/>
</mask>
<path d="M176.444 47.5L186.618 17.4228H194.935L205.109 47.5H198.286L196.267 41.3634H185.245L183.227 47.5H176.444ZM186.981 35.9132H194.531L189.929 21.7022H191.624L186.981 35.9132ZM208.234 47.5V17.4228H219.74C221.813 17.4228 223.643 17.7861 225.231 18.5128C226.846 19.2395 228.111 20.3161 229.026 21.7426C229.941 23.1691 230.398 24.932 230.398 27.0313C230.398 29.0769 229.927 30.8263 228.985 32.2797C228.043 33.7062 226.778 34.7828 225.19 35.5095L232.054 47.5H225.029L217.601 34.2176L221.638 36.5995H214.492V47.5H208.234ZM214.492 31.1493H219.781C220.669 31.1493 221.436 30.9744 222.082 30.6245C222.728 30.2746 223.226 29.7901 223.576 29.1711C223.952 28.552 224.141 27.8388 224.141 27.0313C224.141 26.197 223.952 25.4703 223.576 24.8513C223.226 24.2322 222.728 23.7477 222.082 23.3979C221.436 23.048 220.669 22.873 219.781 22.873H214.492V31.1493ZM235.162 47.5V17.4228H255.388V22.873H241.42V29.6959H254.581V35.1461H241.42V42.0498H255.388V47.5H235.162Z" fill="#FDFDFD"/>
<path d="M176.444 47.5L176.171 47.4076L176.042 47.7884H176.444V47.5ZM186.618 17.4228V17.1344H186.411L186.345 17.3304L186.618 17.4228ZM194.935 17.4228L195.208 17.3304L195.142 17.1344H194.935V17.4228ZM205.109 47.5V47.7884H205.51L205.382 47.4076L205.109 47.5ZM198.286 47.5L198.012 47.5901L198.077 47.7884H198.286V47.5ZM196.267 41.3634L196.541 41.2733L196.476 41.0751H196.267V41.3634ZM185.245 41.3634V41.0751H185.037L184.972 41.2733L185.245 41.3634ZM183.227 47.5V47.7884H183.436L183.501 47.5901L183.227 47.5ZM186.981 35.9132L186.707 35.8237L186.584 36.2016H186.981V35.9132ZM194.531 35.9132V36.2016H194.928L194.805 35.8244L194.531 35.9132ZM189.929 21.7022V21.4139H189.532L189.654 21.7911L189.929 21.7022ZM191.624 21.7022L191.898 21.7918L192.022 21.4139H191.624V21.7022ZM176.718 47.5924L186.891 17.5152L186.345 17.3304L176.171 47.4076L176.718 47.5924ZM186.618 17.7112H194.935V17.1344H186.618V17.7112ZM194.662 17.5152L204.835 47.5924L205.382 47.4076L195.208 17.3304L194.662 17.5152ZM205.109 47.2116H198.286V47.7884H205.109V47.2116ZM198.56 47.4099L196.541 41.2733L195.993 41.4536L198.012 47.5901L198.56 47.4099ZM196.267 41.0751H185.245V41.6518H196.267V41.0751ZM184.972 41.2733L182.953 47.4099L183.501 47.5901L185.519 41.4536L184.972 41.2733ZM183.227 47.2116H176.444V47.7884H183.227V47.2116ZM186.981 36.2016H194.531V35.6248H186.981V36.2016ZM194.805 35.8244L190.203 21.6134L189.654 21.7911L194.257 36.0021L194.805 35.8244ZM189.929 21.9906H191.624V21.4139H189.929V21.9906ZM191.35 21.6127L186.707 35.8237L187.256 36.0028L191.898 21.7918L191.35 21.6127ZM208.234 47.5H207.946V47.7884H208.234V47.5ZM208.234 17.4228V17.1344H207.946V17.4228H208.234ZM225.231 18.5128L225.111 18.7751L225.113 18.7758L225.231 18.5128ZM229.026 21.7426L228.783 21.8983L229.026 21.7426ZM228.985 32.2797L229.226 32.4386L229.227 32.4366L228.985 32.2797ZM225.19 35.5095L225.07 35.2473L224.783 35.3787L224.94 35.6527L225.19 35.5095ZM232.054 47.5V47.7884H232.551L232.304 47.3567L232.054 47.5ZM225.029 47.5L224.777 47.6408L224.86 47.7884H225.029V47.5ZM217.601 34.2176L217.747 33.9692L216.828 33.4269L217.349 34.3583L217.601 34.2176ZM221.638 36.5995V36.8879H222.694L221.784 36.3512L221.638 36.5995ZM214.492 36.5995V36.3112H214.204V36.5995H214.492ZM214.492 47.5V47.7884H214.78V47.5H214.492ZM214.492 31.1493H214.204V31.4377H214.492V31.1493ZM222.082 30.6245L222.219 30.878L222.082 30.6245ZM223.576 29.1711L223.329 29.0211L223.325 29.0292L223.576 29.1711ZM223.576 24.8513L223.324 24.9932L223.329 25.0012L223.576 24.8513ZM222.082 23.3979L221.944 23.6514L222.082 23.3979ZM214.492 22.873V22.5846H214.204V22.873H214.492ZM208.523 47.5V17.4228H207.946V47.5H208.523ZM208.234 17.7112H219.74V17.1344H208.234V17.7112ZM219.74 17.7112C221.779 17.7112 223.567 18.0685 225.111 18.7751L225.351 18.2506C223.719 17.5038 221.846 17.1344 219.74 17.1344V17.7112ZM225.113 18.7758C226.679 19.4806 227.9 20.5211 228.783 21.8983L229.269 21.5869C228.322 20.1112 227.013 18.9984 225.349 18.2499L225.113 18.7758ZM228.783 21.8983C229.662 23.2684 230.11 24.974 230.11 27.0313H230.687C230.687 24.89 230.22 23.0698 229.269 21.5869L228.783 21.8983ZM230.11 27.0313C230.11 29.0315 229.65 30.7241 228.743 32.1229L229.227 32.4366C230.205 30.9285 230.687 29.1223 230.687 27.0313H230.11ZM228.745 32.1208C227.833 33.5012 226.61 34.5425 225.07 35.2473L225.31 35.7717C226.946 35.0231 228.254 33.9112 229.226 32.4386L228.745 32.1208ZM224.94 35.6527L231.803 47.6433L232.304 47.3567L225.441 35.3662L224.94 35.6527ZM232.054 47.2116H225.029V47.7884H232.054V47.2116ZM225.281 47.3592L217.852 34.0768L217.349 34.3583L224.777 47.6408L225.281 47.3592ZM217.454 34.4659L221.491 36.8479L221.784 36.3512L217.747 33.9692L217.454 34.4659ZM221.638 36.3112H214.492V36.8879H221.638V36.3112ZM214.204 36.5995V47.5H214.78V36.5995H214.204ZM214.492 47.2116H208.234V47.7884H214.492V47.2116ZM214.492 31.4377H219.781V30.8609H214.492V31.4377ZM219.781 31.4377C220.707 31.4377 221.523 31.2551 222.219 30.878L221.944 30.3709C221.349 30.6936 220.631 30.8609 219.781 30.8609V31.4377ZM222.219 30.878C222.911 30.5032 223.449 29.9808 223.827 29.313L223.325 29.0292C223.002 29.5994 222.544 30.0459 221.944 30.3709L222.219 30.878ZM223.822 29.321C224.229 28.6518 224.429 27.8855 224.429 27.0313H223.852C223.852 27.7921 223.676 28.4523 223.329 29.0211L223.822 29.321ZM224.429 27.0313C224.429 26.1523 224.23 25.372 223.822 24.7013L223.329 25.0012C223.675 25.5686 223.852 26.2417 223.852 27.0313H224.429ZM223.827 24.7094C223.449 24.0415 222.911 23.5191 222.219 23.1443L221.944 23.6514C222.544 23.9764 223.002 24.4229 223.325 24.9931L223.827 24.7094ZM222.219 23.1443C221.523 22.7672 220.707 22.5846 219.781 22.5846V23.1614C220.631 23.1614 221.349 23.3287 221.944 23.6514L222.219 23.1443ZM219.781 22.5846H214.492V23.1614H219.781V22.5846ZM214.204 22.873V31.1493H214.78V22.873H214.204ZM235.162 47.5H234.874V47.7884H235.162V47.5ZM235.162 17.4228V17.1344H234.874V17.4228H235.162ZM255.388 17.4228H255.677V17.1344H255.388V17.4228ZM255.388 22.873V23.1614H255.677V22.873H255.388ZM241.42 22.873V22.5846H241.131V22.873H241.42ZM241.42 29.6959H241.131V29.9843H241.42V29.6959ZM254.581 29.6959H254.869V29.4075H254.581V29.6959ZM254.581 35.1461V35.4345H254.869V35.1461H254.581ZM241.42 35.1461V34.8578H241.131V35.1461H241.42ZM241.42 42.0498H241.131V42.3381H241.42V42.0498ZM255.388 42.0498H255.677V41.7614H255.388V42.0498ZM255.388 47.5V47.7884H255.677V47.5H255.388ZM235.45 47.5V17.4228H234.874V47.5H235.45ZM235.162 17.7112H255.388V17.1344H235.162V17.7112ZM255.1 17.4228V22.873H255.677V17.4228H255.1ZM255.388 22.5846H241.42V23.1614H255.388V22.5846ZM241.131 22.873V29.6959H241.708V22.873H241.131ZM241.42 29.9843H254.581V29.4075H241.42V29.9843ZM254.293 29.6959V35.1461H254.869V29.6959H254.293ZM254.581 34.8578H241.42V35.4345H254.581V34.8578ZM241.131 35.1461V42.0498H241.708V35.1461H241.131ZM241.42 42.3381H255.388V41.7614H241.42V42.3381ZM255.1 42.0498V47.5H255.677V42.0498H255.1ZM255.388 47.2116H235.162V47.7884H255.388V47.2116Z" fill="#FDFDFD" mask="url(#path-6-outside-2_2190_445)"/>
<defs>
<clipPath id="clip0_2190_445">
<rect width="56.4953" height="37.9533" fill="white" transform="translate(122.665 15.0654)"/>
</clipPath>
</defs>
</svg>
